<?xml version="1.0" encoding="UTF-8"?>
<svg version="1.1" xmlns="http://www.w3.org/2000/svg" width="1024" height="1024">
<path d="M0 0 C2.45197434 0.14458703 4.90372397 0.26456628 7.35742188 0.37548828 C8.78973361 0.44670033 10.22202658 0.5182913 11.65429688 0.59033203 C12.90339844 0.65091797 14.1525 0.71150391 15.43945312 0.77392578 C18.49865868 1.14163698 19.92690087 1.758352 22.59179688 3.15283203 C24.61782218 3.68404598 26.64528055 4.2109013 28.68212891 4.69897461 C40.12561025 7.44796086 50.81622555 11.45787147 61.59179688 16.15283203 C62.3476709 16.48186523 63.10354492 16.81089844 63.88232422 17.14990234 C80.16972719 24.33225678 94.85673736 33.7140571 109.48974609 43.79541016 C111.57732882 45.1952005 111.57732882 45.1952005 113.86962891 46.30712891 C116.04479843 47.43947522 117.76842341 48.51420705 119.59179688 50.15283203 C121.35328612 58.9427118 120.75589477 68.23114601 120.75976562 77.17236328 C120.76298314 78.92111742 120.76634758 80.66987129 120.76985168 82.41862488 C120.77581286 86.06725693 120.77769441 89.71586538 120.77709961 93.36450195 C120.7769975 98.03961435 120.79071304 102.71457654 120.80787182 107.38965321 C120.81897943 110.99357298 120.82101929 114.59745608 120.82048988 118.20139122 C120.82166942 119.92577322 120.82608976 121.65015619 120.83382225 123.37452126 C120.84360845 125.77965604 120.84075093 128.18445961 120.8347168 130.58959961 C120.8403363 131.29978745 120.84595581 132.00997528 120.85174561 132.74168396 C120.8285196 136.38083444 120.58772633 139.05745752 118.59179688 142.15283203 C117.97433594 141.48767578 117.356875 140.82251953 116.72070312 140.13720703 C112.69263062 136.11337907 108.07177233 132.81621113 103.52929688 129.40283203 C102.59496826 128.69707031 101.66063965 127.99130859 100.69799805 127.26416016 C98.84375879 125.86420068 96.98840005 124.46572254 95.13183594 123.06884766 C92.95180727 121.42439696 90.78065083 119.76956126 88.61523438 118.10595703 C87.54494337 117.28822056 86.47463307 116.47050935 85.40429688 115.65283203 C84.50324219 114.96189453 83.6021875 114.27095703 82.67382812 113.55908203 C80.73430934 111.96626098 80.73430934 111.96626098 78.59179688 112.15283203 C77.41436052 110.98389702 76.24110787 109.81040657 75.09082031 108.61474609 C72.3668924 105.95825092 69.27679452 103.7786939 66.21679688 101.52783203 C65.51417725 101.00640625 64.81155762 100.48498047 64.08764648 99.94775391 C61.92541299 98.34527415 59.75880755 96.74884311 57.59179688 95.15283203 C56.32992843 94.21813826 55.06820297 93.28325141 53.80664062 92.34814453 C50.72762167 90.07132995 47.63644916 87.81187028 44.53662109 85.56347656 C43.20868812 84.6002834 41.88225427 83.63502088 40.55712891 82.66796875 C16.22416631 64.95211417 -8.87171347 49.47178834 -40.17773438 53.65673828 C-58.12871492 57.12026815 -74.36909192 66.09580635 -85.22070312 81.09033203 C-95.99703453 97.52106792 -99.80781979 115.60608642 -96.15820312 135.02001953 C-93.84009939 144.702932 -90.16189233 153.2176296 -84.86132812 161.62939453 C-83.54714249 163.9115556 -82.9702668 165.62220406 -82.40820312 168.15283203 C-82.84052246 168.49950928 -83.2728418 168.84618652 -83.71826172 169.20336914 C-91.3566595 175.33944725 -98.91060215 181.49743213 -106.13476562 188.12158203 C-109.18865568 190.85014359 -112.39409213 193.36208651 -115.60742188 195.89892578 C-119.1112564 198.71860851 -122.54713201 201.61153713 -125.97070312 204.52783203 C-126.90124512 205.31444214 -126.90124512 205.31444214 -127.85058594 206.11694336 C-131.07591556 208.76261489 -131.07591556 208.76261489 -133.40820312 212.15283203 C-129.17481526 212.51289912 -129.17481526 212.51289912 -125.41601562 210.82470703 C-124.7946875 210.19048828 -124.17335938 209.55626953 -123.53320312 208.90283203 C-119.45969989 205.01448804 -115.1895493 201.66378304 -110.65820312 198.34033203 C-105.53298624 194.55744806 -100.54741042 190.68549811 -95.72070312 186.52783203 C-90.06461035 181.65977721 -84.21116117 177.09063006 -78.27001953 172.57617188 C-74.63003327 169.79343913 -71.02177209 166.9697235 -67.40820312 164.15283203 C-61.11644359 159.25346796 -54.81198983 154.37161492 -48.48632812 149.51611328 C-46.36971962 147.89105219 -44.25490454 146.26390151 -42.14257812 144.63330078 C-37.00538939 140.66950044 -31.85521774 136.72568539 -26.65820312 132.84033203 C-21.57208928 129.03763009 -16.51624807 125.19669311 -11.47070312 121.34033203 C-10.74850586 120.78885498 -10.02630859 120.23737793 -9.28222656 119.66918945 C-5.62434441 116.87019992 -1.99072679 114.04829636 1.59179688 111.15283203 C5.79405537 112.5918568 8.80214998 114.65747684 12.27929688 117.40283203 C12.83037109 117.83466797 13.38144531 118.26650391 13.94921875 118.71142578 C15.16826842 119.66686098 16.38546479 120.62466422 17.60107422 121.58447266 C21.25006748 124.45927432 24.9234256 127.30283134 28.59179688 130.15283203 C30.13739039 131.35593056 31.68296358 132.55905522 33.22851562 133.76220703 C38.99809013 138.2495146 44.7928758 142.70353197 50.59179688 147.15283203 C58.63345945 153.32290562 66.64746649 159.526535 74.64160156 165.75805664 C79.91206191 169.86107331 85.21359654 173.92117917 90.52929688 177.96533203 C97.00121616 182.8946335 103.32727979 187.96167457 109.59179688 193.15283203 C111.44118447 194.67947331 113.29520837 196.20051918 115.15429688 197.71533203 C116.36279297 198.70726562 116.36279297 198.70726562 117.59570312 199.71923828 C119.45294661 201.34727911 119.45294661 201.34727911 121.59179688 201.15283203 C122.76290047 202.30473721 123.92876211 203.46247962 125.06689453 204.64697266 C127.93036435 207.47468349 131.12701228 209.90791037 134.27929688 212.40283203 C134.95541016 212.94423828 135.63152344 213.48564453 136.328125 214.04345703 C139.7874684 216.86251105 139.7874684 216.86251105 143.59179688 219.15283203 C143.59179688 219.81283203 143.59179688 220.47283203 143.59179688 221.15283203 C139.36016458 221.30278084 135.12999695 221.41078076 130.89648438 221.48242188 C129.46098856 221.51232804 128.0256712 221.55307066 126.59082031 221.60546875 C117.05481962 221.94461522 110.3950283 221.16958629 102.59179688 215.15283203 C101.33818205 214.31319723 100.08060899 213.47942905 98.81835938 212.65283203 C97.61555203 211.82280239 96.41509205 210.9893626 95.21679688 210.15283203 C94.54745117 209.68917236 93.87810547 209.2255127 93.18847656 208.74780273 C90.9866723 207.22028215 88.78876223 205.6873031 86.59179688 204.15283203 C85.42632324 203.33951416 85.42632324 203.33951416 84.23730469 202.50976562 C79.20578725 198.99664112 74.18007899 195.47527936 69.15625 191.95117188 C64.97006563 189.01558219 60.78080095 186.08439594 56.59179688 183.15283203 C54.92511491 181.98618722 53.25844825 180.81952054 51.59179688 179.65283203 C50.76679687 179.07533203 49.94179688 178.49783203 49.09179688 177.90283203 C41.59179688 172.65283203 41.59179688 172.65283203 39.08813477 170.89990234 C37.43413443 169.74234475 35.77968024 168.58543535 34.12475586 167.42919922 C29.76020419 164.37853479 25.40587393 161.31446923 21.06445312 158.23095703 C20.15888672 157.59029297 19.25332031 156.94962891 18.3203125 156.28955078 C16.58560853 155.06191413 14.85367928 153.83034408 13.125 152.59423828 C11.9503418 151.76472656 11.9503418 151.76472656 10.75195312 150.91845703 C9.72533569 150.18804199 9.72533569 150.18804199 8.67797852 149.44287109 C6.33462959 147.99380664 4.24590149 146.91491211 1.59179688 146.15283203 C-0.29678133 146.73130112 -0.29678133 146.73130112 -1.91210938 148.09033203 C-2.55994385 148.56607666 -3.20777832 149.04182129 -3.87524414 149.53198242 C-4.91249634 150.33430298 -4.91249634 150.33430298 -5.97070312 151.15283203 C-7.49078663 152.27754407 -9.01165272 153.40119901 -10.53320312 154.52392578 C-11.32855469 155.11931152 -12.12390625 155.71469727 -12.94335938 156.328125 C-17.05964733 159.37538492 -21.26710983 162.29033675 -25.47070312 165.21533203 C-27.16471898 166.40022009 -28.85872945 167.58511585 -30.55273438 168.77001953 C-36.8415518 173.15745134 -43.15974982 177.50151708 -49.48583984 181.83496094 C-52.07510443 183.61002447 -54.66102945 185.38992241 -57.24707031 187.16967773 C-64.59333269 192.22500401 -71.95095037 197.26359738 -79.3125 202.29663086 C-85.26895226 206.37007956 -91.21741839 210.45500263 -97.15820312 214.55126953 C-100.88645554 217.11891458 -104.63537767 219.65109632 -108.40820312 222.15283203 C-105.72581942 225.01953382 -103.19231732 227.04876958 -99.75195312 228.93017578 C-98.82664795 229.43709961 -97.90134277 229.94402344 -96.94799805 230.46630859 C-95.94486572 231.00223633 -94.9417334 231.53816406 -93.90820312 232.09033203 C-92.85157471 232.6559082 -91.79494629 233.22148437 -90.70629883 233.80419922 C-55.7014851 252.31313836 -21.12277209 263.10448588 17.65429688 269.96533203 C19.00254044 270.20440277 19.00254044 270.20440277 20.37802124 270.44830322 C22.96007391 270.90351335 25.5432172 271.35181673 28.12695312 271.79736328 C28.9062619 271.93458298 29.68557068 272.07180267 30.48849487 272.21318054 C34.22756425 272.84919824 37.79616719 273.31597875 41.59179688 273.15283203 C41.59179688 273.81283203 41.59179688 274.47283203 41.59179688 275.15283203 C42.18532959 275.19384033 42.7788623 275.23484863 43.39038086 275.27709961 C50.02484227 275.82626084 56.23339181 277.11286655 62.65429688 278.84033203 C63.65726807 279.10797363 64.66023926 279.37561523 65.69360352 279.65136719 C88.38636475 285.82796663 110.29710075 294.66254037 127.59179688 311.15283203 C127.59179688 311.81283203 127.59179688 312.47283203 127.59179688 313.15283203 C128.25179688 313.15283203 128.91179687 313.15283203 129.59179688 313.15283203 C129.59179688 313.81283203 129.59179688 314.47283203 129.59179688 315.15283203 C130.25179688 315.15283203 130.91179687 315.15283203 131.59179688 315.15283203 C152.12105732 339.20731902 159.60922243 367.88273589 157.59179688 399.15283203 C155.14156322 421.67613369 145.67987195 440.6994013 131.59179688 458.15283203 C131.06714844 458.83345703 130.5425 459.51408203 130.00195312 460.21533203 C125.62504448 465.69598286 120.09100978 469.85287359 114.59179688 474.15283203 C113.90988281 474.70068359 113.22796875 475.24853516 112.52539062 475.81298828 C91.70365925 492.11392621 65.01155578 499.85322431 39.11816406 502.8515625 C36.61687896 503.14984099 34.1249007 503.49085777 31.63085938 503.84423828 C30.09711264 504.0520639 28.5632634 504.2591349 27.02929688 504.46533203 C26.33296143 504.56620117 25.63662598 504.66707031 24.91918945 504.77099609 C21.19013451 505.23823323 18.75832467 505.30413718 15.59179688 503.15283203 C17.95034162 500.79428729 19.85028308 500.19754718 22.96679688 499.02783203 C34.03913306 494.49823996 43.0910793 487.47552411 51.59179688 479.15283203 C52.21699219 478.56373047 52.8421875 477.97462891 53.48632812 477.36767578 C67.55939056 462.91340172 72.69862708 440.20059969 72.62695312 420.62939453 C72.03137116 396.8597949 63.64466016 375.0320409 46.59179688 358.15283203 C45.93179688 357.82283203 45.27179688 357.49283203 44.59179688 357.15283203 C44.59179688 356.49283203 44.59179688 355.83283203 44.59179688 355.15283203 C44.0375 354.90533203 43.48320313 354.65783203 42.91210938 354.40283203 C40.160446 352.92045445 37.91096774 351.10259796 35.46679688 349.15283203 C16.84436762 334.91638032 -5.98711049 325.99975787 -27.06054688 315.99267578 C-29.05147792 315.04615716 -31.0423656 314.09954733 -33.03320312 313.15283203 C-33.96261719 312.71229492 -34.89203125 312.27175781 -35.84960938 311.81787109 C-42.0312946 308.86895493 -48.05248076 305.7237298 -53.98242188 302.29736328 C-56.56409064 300.86835964 -56.56409064 300.86835964 -60.40820312 301.15283203 C-60.90320313 299.66783203 -60.90320313 299.66783203 -61.40820312 298.15283203 C-63.88241102 296.57041994 -66.34007573 295.12910907 -68.90820312 293.71533203 C-82.87603194 285.76640275 -95.6684226 276.29883029 -107.98632812 265.99658203 C-110.34628507 263.99400612 -110.34628507 263.99400612 -113.40820312 263.15283203 C-115.05664062 261.48095703 -115.05664062 261.48095703 -116.78320312 259.40283203 C-120.26339176 255.23931869 -124.03491703 251.46916156 -127.95117188 247.71533203 C-154.17376642 222.30614145 -172.67850452 186.24017843 -173.61132812 149.31689453 C-173.76750712 136.28838313 -173.41269623 123.85720167 -170.40820312 111.15283203 C-170.25254883 110.47027344 -170.09689453 109.78771484 -169.93652344 109.08447266 C-161.59564818 73.7564541 -137.92584935 44.93671303 -107.4765625 25.94824219 C-83.91213174 11.72852961 -58.64359185 3.72978154 -31.40820312 0.15283203 C-29.59449219 -0.09273437 -29.59449219 -0.09273437 -27.74414062 -0.34326172 C-18.51482626 -1.3091202 -9.23693927 -0.56507937 0 0 Z " fill="#2C2C2C" transform="translate(525.408203125,246.84716796875)"/>
<path d="M0 0 C2.41746488 2.88236198 4.54902983 5.83097304 6.5625 9 C13.18498423 19.00879229 21.40219092 28.73120917 31 36 C31.66 36 32.32 36 33 36 C34.67850754 37.65474106 36.34263112 39.32408713 38 41 C55.46115235 55.72566524 89.62865879 79 113 79 C113 79.66 113 80.32 113 81 C114.00812744 81.17873657 114.00812744 81.17873657 115.03662109 81.36108398 C118.56078789 82.12090805 121.97469619 83.15389114 125.4140625 84.22265625 C126.13312775 84.44370529 126.85219299 84.66475433 127.5930481 84.89250183 C129.9377368 85.61356863 132.28140998 86.33787096 134.625 87.0625 C137.89267115 88.07082966 141.16090046 89.07732494 144.4296875 90.08203125 C145.24514038 90.33270355 146.06059326 90.58337585 146.90075684 90.84164429 C153.03830549 92.72142797 159.19735754 94.51114288 165.36865234 96.27709961 C204.15647864 107.43735144 204.15647864 107.43735144 214 124 C218.63894568 132.63803679 218.71519619 140.76610573 216.06640625 150.0546875 C209.65980513 167.74910965 193.99854511 179.28014991 177.8125 187.4921875 C168.73083086 191.38469321 159.54738908 192.50992492 149.75 192.375 C148.1088623 192.35759766 148.1088623 192.35759766 146.43457031 192.33984375 C130.24375219 192.01497635 114.52113751 188.42420676 100 181 C99.67 180.34 99.34 179.68 99 179 C98.13761719 178.71382812 97.27523437 178.42765625 96.38671875 178.1328125 C92.53485771 176.84441607 89.25382531 174.98471692 85.8125 172.875 C84.82902588 172.27776123 84.82902588 172.27776123 83.82568359 171.66845703 C77.98876292 168.07858706 72.44479874 164.1606481 67 160 C66.22140625 159.41476562 65.4428125 158.82953125 64.640625 158.2265625 C59.23492156 154.10704367 53.74386045 149.87843805 49 145 C49 144.34 49 143.68 49 143 C48.43410156 142.76667969 47.86820312 142.53335938 47.28515625 142.29296875 C29.29973057 132.11659969 13.1604102 100.77512139 7.625 81.6875 C7.41875 80.800625 7.2125 79.91375 7 79 C6.34 79 5.68 79 5 79 C4.34 77.68 3.68 76.36 3 75 C3.66 75 4.32 75 5 75 C4.66226562 73.76765625 4.32453125 72.5353125 3.9765625 71.265625 C-2.36872406 47.840705 -4.88317588 25.12104141 -1 1 C-0.67 0.67 -0.34 0.34 0 0 Z " fill="#B8966C" transform="translate(359,553)"/>
<path d="M0 0 C4.20225849 1.43902477 7.21035311 3.50464481 10.6875 6.25 C11.23857422 6.68183594 11.78964844 7.11367188 12.35742188 7.55859375 C13.57647155 8.51402895 14.79366791 9.47183219 16.00927734 10.43164062 C19.65827061 13.30644228 23.33162872 16.14999931 27 19 C28.54559352 20.20309853 30.09116671 21.40622319 31.63671875 22.609375 C37.40629325 27.09668256 43.20107892 31.55069994 49 36 C57.04166258 42.17007359 65.05566962 48.37370297 73.04980469 54.60522461 C78.32026503 58.70824128 83.62179967 62.76834714 88.9375 66.8125 C95.40941929 71.74180147 101.73548291 76.80884254 108 82 C109.84938759 83.52664128 111.7034115 85.04768714 113.5625 86.5625 C114.77099609 87.55443359 114.77099609 87.55443359 116.00390625 88.56640625 C117.86114973 90.19444708 117.86114973 90.19444708 120 90 C121.17110359 91.15190517 122.33696524 92.30964759 123.47509766 93.49414062 C126.33856748 96.32185146 129.5352154 98.75507834 132.6875 101.25 C133.36361328 101.79140625 134.03972656 102.3328125 134.73632812 102.890625 C138.19567153 105.70967902 138.19567153 105.70967902 142 108 C142 108.66 142 109.32 142 110 C137.7683677 110.14994881 133.53820008 110.25794872 129.3046875 110.32958984 C127.86919168 110.35949601 126.43387432 110.40023863 124.99902344 110.45263672 C115.46302275 110.79178319 108.80323143 110.01675426 101 104 C99.74638517 103.1603652 98.48881212 102.32659702 97.2265625 101.5 C96.02375516 100.66997036 94.82329517 99.83653057 93.625 99 C92.9556543 98.53634033 92.28630859 98.07268066 91.59667969 97.5949707 C89.39487543 96.06745012 87.19696535 94.53447106 85 93 C84.22301758 92.45778809 83.44603516 91.91557617 82.64550781 91.35693359 C77.61399037 87.84380908 72.58828212 84.32244733 67.56445312 80.79833984 C63.37826875 77.86275016 59.18900408 74.93156391 55 72 C53.33331803 70.83335519 51.66665138 69.6666885 50 68.5 C49.175 67.9225 48.35 67.345 47.5 66.75 C40 61.5 40 61.5 37.49633789 59.74707031 C35.84233755 58.58951272 34.18788337 57.43260332 32.53295898 56.27636719 C28.16840732 53.22570276 23.81407705 50.1616372 19.47265625 47.078125 C18.56708984 46.43746094 17.66152344 45.79679687 16.72851562 45.13671875 C14.99381166 43.9090821 13.2618824 42.67751205 11.53320312 41.44140625 C10.35854492 40.61189453 10.35854492 40.61189453 9.16015625 39.765625 C8.13353882 39.03520996 8.13353882 39.03520996 7.08618164 38.29003906 C4.74283271 36.84097461 2.65410462 35.76208008 0 35 C-1.8885782 35.57846909 -1.8885782 35.57846909 -3.50390625 36.9375 C-4.15174072 37.41324463 -4.7995752 37.88898926 -5.46704102 38.37915039 C-6.50429321 39.18147095 -6.50429321 39.18147095 -7.5625 40 C-9.08258351 41.12471203 -10.60344959 42.24836698 -12.125 43.37109375 C-12.92035156 43.96647949 -13.71570313 44.56186523 -14.53515625 45.17529297 C-18.65144421 48.22255289 -22.8589067 51.13750472 -27.0625 54.0625 C-28.75651585 55.24738806 -30.45052633 56.43228381 -32.14453125 57.6171875 C-38.43334867 62.00461931 -44.7515467 66.34868504 -51.07763672 70.68212891 C-53.66690131 72.45719244 -56.25282633 74.23709038 -58.83886719 76.0168457 C-65.38535844 80.52180993 -71.94038367 85.01417113 -78.5 89.5 C-84.5860349 93.66273179 -90.6710992 97.82685469 -96.75 102 C-97.38099609 102.43248047 -98.01199219 102.86496094 -98.66210938 103.31054688 C-99.56413086 103.93026367 -99.56413086 103.93026367 -100.484375 104.5625 C-101.35703003 105.15635498 -101.35703003 105.15635498 -102.24731445 105.76220703 C-103.46868551 106.62477163 -104.66389446 107.52507936 -105.83666992 108.45263672 C-110.38751849 111.99810083 -110.38751849 111.99810083 -113.51953125 112.0078125 C-114.27621094 111.71648437 -115.03289062 111.42515625 -115.8125 111.125 C-116.65296875 110.80917969 -117.4934375 110.49335938 -118.359375 110.16796875 C-130.62962963 104.74074074 -130.62962963 104.74074074 -132 102 C-130.99453125 101.44505859 -130.99453125 101.44505859 -129.96875 100.87890625 C-126.22517294 98.50961603 -122.90670567 95.761695 -119.5 92.9375 C-114.55691691 88.8775931 -109.58981974 84.87462528 -104.5 81 C-99.58945028 77.25631358 -94.77992561 73.40883886 -90 69.5 C-84.2255321 64.78133718 -78.38998967 60.17208471 -72.4609375 55.6484375 C-68.36728101 52.52477351 -64.31061377 49.35391478 -60.25 46.1875 C-48.64320095 37.14768386 -36.9667832 28.20332337 -25.18359375 19.39453125 C-21.12859007 16.34457143 -17.09392101 13.26853495 -13.0625 10.1875 C-12.33998047 9.63578125 -11.61746094 9.0840625 -10.87304688 8.515625 C-7.21550089 5.71686671 -3.58220676 2.8952082 0 0 Z " fill="#B7956B" transform="translate(527,358)"/>
<path d="M0 0 C1.26850536 3.80551607 0.4425147 6.61749022 -0.3125 10.4375 C-14.22430639 87.87536084 4.42721279 168.53519524 48.49316406 233.1706543 C48.99041992 233.77433838 49.48767578 234.37802246 50 235 C50.66 235 51.32 235 52 235 C52.08765625 235.55042969 52.1753125 236.10085938 52.265625 236.66796875 C57.06397425 251.90527992 75.74964195 266.93925425 86.6875 277.9375 C87.17269104 278.42795807 87.65788208 278.91841614 88.15777588 279.42373657 C94.4311596 285.74974535 100.90549409 291.60068904 108 297 C108.62076416 297.48009521 109.24152832 297.96019043 109.88110352 298.45483398 C156.79212291 334.4407267 209.46746611 352.89889031 268 358 C268 358.66 268 359.32 268 360 C257.95000878 361.25678024 247.91885892 361.11379149 237.8125 361.0625 C236.08007942 361.05747379 234.34765743 361.05291287 232.61523438 361.04882812 C228.41012072 361.03791402 224.20507634 361.02071152 220 361 C220 360.34 220 359.68 220 359 C218.98703857 359.02634521 217.97407715 359.05269043 216.93041992 359.07983398 C213.1317797 359.00267669 209.82258611 358.51097102 206.11328125 357.72265625 C204.84548828 357.45646484 203.57769531 357.19027344 202.27148438 356.91601562 C200.95180297 356.63160294 199.6321417 356.34709684 198.3125 356.0625 C196.98125225 355.7812733 195.64987284 355.50066907 194.31835938 355.22070312 C184.69229709 353.18357113 184.69229709 353.18357113 181.78198242 352.41186523 C179.81766933 351.88740452 179.81766933 351.88740452 177 352 C174 351 174 351 172 349 C169.32242327 347.99402629 166.64293826 347.04982099 163.9375 346.125 C133.35541871 335.23246765 105.28132764 318.4708375 81 297 C80.17628906 296.28714844 79.35257812 295.57429688 78.50390625 294.83984375 C67.0778244 284.8021528 56.3121416 274.03440759 47 262 C46.0518644 260.79472006 45.10257606 259.59034635 44.15234375 258.38671875 C41.82794545 255.4401215 39.51224258 252.48693548 37.20410156 249.52758789 C36.11099547 248.14081482 34.99239394 246.77423336 33.87109375 245.41015625 C30.82441691 241.48573118 28.4940653 237.17543435 26.05224609 232.85742188 C25.32734908 231.57783569 24.59825494 230.30062116 23.86572266 229.02539062 C-11.32122672 167.74783085 -26.94401877 91.3750408 -8.16455078 21.90966797 C-3.18287837 4.77431755 -3.18287837 4.77431755 0 0 Z " fill="#B8956B" transform="translate(260,431)"/>
<path d="M0 0 C1.30525635 0.00177246 2.6105127 0.00354492 3.95532227 0.00537109 C4.62314728 0.00591492 5.29097229 0.00645874 5.97903442 0.00701904 C65.63487678 0.22895628 122.78184405 25.37817937 165.58032227 66.38037109 C166.16426758 66.93176758 166.74821289 67.48316406 167.34985352 68.05126953 C177.21048379 77.39810907 185.70738617 87.31151665 193.58032227 98.38037109 C194.03246094 99.01442871 194.48459961 99.64848633 194.95043945 100.30175781 C217.65374711 132.4774746 231.06516745 168.94601788 238.39282227 207.44287109 C238.60003906 208.52415283 238.80725586 209.60543457 239.02075195 210.71948242 C241.53099423 224.5734376 241.7668772 238.41109335 241.765625 252.44702148 C241.76781054 255.17821885 241.78603875 257.90901032 241.80493164 260.64013672 C241.85581158 276.04284208 240.42192723 290.74210988 237.14282227 305.81787109 C236.93850586 306.80207031 236.73418945 307.78626953 236.52368164 308.80029297 C235.18457463 315.10369076 233.513793 321.23531169 231.58032227 327.38037109 C231.26708008 328.42451172 230.95383789 329.46865234 230.63110352 330.54443359 C229.94750977 332.82307943 229.26391602 335.10172526 228.58032227 337.38037109 C227.92032227 337.05037109 227.26032227 336.72037109 226.58032227 336.38037109 C226.66596436 335.71094482 226.75160645 335.04151855 226.83984375 334.35180664 C227.23453765 331.25741713 227.62619339 328.16264995 228.01782227 325.06787109 C228.1525293 324.01535156 228.28723633 322.96283203 228.42602539 321.87841797 C228.5581543 320.83105469 228.6902832 319.78369141 228.82641602 318.70458984 C228.94686279 317.75672607 229.06730957 316.8088623 229.19140625 315.83227539 C230.13617662 307.44677114 230.74265805 299.16045623 230.78344727 290.72021484 C230.7905069 289.74055252 230.79756653 288.7608902 230.80484009 287.75154114 C231.05493665 242.84499373 225.29063878 200.9720439 207.58032227 159.38037109 C207.23098633 158.55005371 206.88165039 157.71973633 206.52172852 156.86425781 C199.35053214 139.92460483 190.66017544 123.91232894 179.79321289 109.04199219 C178.93940563 107.87230374 178.09234826 106.69767324 177.25024414 105.51953125 C169.76048356 95.04792927 161.55531769 85.59998575 152.58032227 76.38037109 C151.75532227 75.51541016 150.93032227 74.65044922 150.08032227 73.75927734 C144.62845892 68.141911 138.72954437 63.2153795 132.58032227 58.38037109 C132.04826172 57.96078125 131.51620117 57.54119141 130.96801758 57.10888672 C120.58963339 47.47049165 120.58963339 47.47049165 108.58032227 42.38037109 C107.57576653 41.38494768 106.57690349 40.38377822 105.58032227 39.38037109 C87.63305669 26.72374895 57.49154788 9.90558777 34.95922852 10.44287109 C32.58032227 10.38037109 32.58032227 10.38037109 29.58032227 8.38037109 C26.91034704 7.76874876 26.91034704 7.76874876 23.87329102 7.38037109 C22.73480713 7.21633789 21.59632324 7.05230469 20.42333984 6.88330078 C19.21701904 6.71733398 18.01069824 6.55136719 16.76782227 6.38037109 C15.54925537 6.20666992 14.33068848 6.03296875 13.07519531 5.85400391 C9.57776084 5.35647069 6.07913595 4.86809086 2.58032227 4.38037109 C0.94734107 4.14717437 -0.68550091 3.91299758 -2.31811523 3.67724609 C-5.35123758 3.23947586 -8.38493048 2.80669418 -11.41967773 2.38037109 C-8.19335584 -0.8459508 -4.40291738 0.05365457 0 0 Z " fill="#B8956B" transform="translate(559.419677734375,213.61962890625)"/>
<path d="M0 0 C6.93 0 13.86 0 21 0 C22.05279187 4.21116746 22.14402555 8.04440879 22.1328125 12.34375 C22.13376923 13.14985718 22.13472595 13.95596436 22.13571167 14.78649902 C22.13639097 16.48771238 22.13455413 18.18892836 22.13037109 19.89013672 C22.12501931 22.49061925 22.13032454 25.09092907 22.13671875 27.69140625 C22.13605792 29.34635455 22.13477667 31.00130274 22.1328125 32.65625 C22.13483673 33.43238647 22.13686096 34.20852295 22.13894653 35.00817871 C22.12377339 38.51031438 21.93990357 41.63083143 21 45 C14.22159705 46.20504941 6.61112794 47.20370931 0 45 C0 39.39 0 33.78 0 28 C-1.29633621 29.06645115 -1.29633621 29.06645115 -1.0625 31.5625 C-1.041875 32.366875 -1.02125 33.17125 -1 34 C-1.66 34 -2.32 34 -3 34 C-3.33 37.63 -3.66 41.26 -4 45 C-7.62806679 45.72561336 -9.73148597 46.11768417 -13.20703125 45.87890625 C-14.33334961 45.80639648 -14.33334961 45.80639648 -15.48242188 45.73242188 C-16.25134766 45.67634766 -17.02027344 45.62027344 -17.8125 45.5625 C-18.99489258 45.48418945 -18.99489258 45.48418945 -20.20117188 45.40429688 C-22.13451529 45.27540731 -24.06732164 45.13850506 -26 45 C-26.02749868 43.16675453 -26.04661673 41.3333829 -26.0625 39.5 C-26.07410156 38.4790625 -26.08570313 37.458125 -26.09765625 36.40625 C-25.98819297 32.58817095 -25.47376901 28.79015207 -25 25 C-18.07 25 -11.14 25 -4 25 C-3.67 24.34 -3.34 23.68 -3 23 C-2.67 23.99 -2.34 24.98 -2 26 C-0.68 25.67 0.64 25.34 2 25 C2 24.34 2 23.68 2 23 C1.34 22.67 0.68 22.34 0 22 C0.99 22 1.98 22 3 22 C3 22.99 3 23.98 3 25 C8.94 25 14.88 25 21 25 C20.505 23.02 20.505 23.02 20 21 C12.74 21 5.48 21 -2 21 C-1.34 20.67 -0.68 20.34 0 20 C-0.08378906 18.72382813 -0.16757812 17.44765625 -0.25390625 16.1328125 C-0.35706232 14.46355965 -0.45991099 12.79428779 -0.5625 11.125 C-0.61857422 10.28324219 -0.67464844 9.44148438 -0.73242188 8.57421875 C-0.78076172 7.76855469 -0.82910156 6.96289062 -0.87890625 6.1328125 C-0.9260376 5.38918457 -0.97316895 4.64555664 -1.02172852 3.87939453 C-1 2 -1 2 0 0 Z " fill="#B59267" transform="translate(530,444)"/>
<path d="M0 0 C3.15432765 0.9929164 5.52554785 2.41989535 8.29858398 4.22338867 C9.90540039 5.26076172 9.90540039 5.26076172 11.54467773 6.3190918 C12.66586117 7.05398103 13.78695446 7.78900781 14.90795898 8.52416992 C16.00237305 9.23250977 17.09678711 9.94084961 18.22436523 10.6706543 C23.0150997 13.77745994 27.78268766 16.9146319 32.51733398 20.10620117 C35.5558214 22.13908166 38.63116378 24.02318416 41.82250977 25.80444336 C45.6269502 27.94399832 49.35752008 30.20866565 53.09545898 32.46166992 C53.92239258 32.95151367 54.74932617 33.44135742 55.60131836 33.94604492 C56.3818457 34.4178418 57.16237305 34.88963867 57.96655273 35.37573242 C58.67610107 35.80063965 59.38564941 36.22554688 60.11669922 36.66333008 C60.62531494 37.05053223 61.13393066 37.43773437 61.65795898 37.83666992 C61.65795898 38.49666992 61.65795898 39.15666992 61.65795898 39.83666992 C58.24354137 39.04872739 54.93719404 38.07549205 51.65795898 36.83666992 C51.32795898 36.17666992 50.99795898 35.51666992 50.65795898 34.83666992 C48.67301467 34.19722477 46.68705107 33.56087394 44.69799805 32.93432617 C37.76477232 30.43097066 31.17627441 27.01543793 24.53295898 23.83666992 C22.24090165 22.74502988 19.94814827 21.65487627 17.65481567 20.56591797 C16.23700179 19.89215389 14.82001192 19.21665189 13.40402222 18.5390625 C12.11275146 17.92345458 10.81887193 17.31328189 9.52215576 16.70922852 C8.27135821 16.12377844 7.0279733 15.52224385 5.79229736 14.90551758 C3.1658079 13.65468176 1.11804693 12.81922411 -1.81445312 12.93041992 C-5.25904463 14.16545553 -8.51558908 15.70278949 -11.78344727 17.33666992 C-12.49995453 17.68875015 -13.21646179 18.04083038 -13.9546814 18.40357971 C-15.48387085 19.15531092 -17.01187642 19.90945441 -18.53878784 20.665802 C-22.48964331 22.62117502 -26.45118955 24.5546309 -30.41235352 26.48901367 C-31.18830368 26.86831528 -31.96425385 27.24761688 -32.76371765 27.63841248 C-38.90146033 30.63390393 -45.06229045 33.57167406 -51.27954102 36.39916992 C-52.06337158 36.76204102 -52.84720215 37.12491211 -53.65478516 37.4987793 C-57.18187348 39.08326821 -59.40947011 39.83666992 -63.34204102 39.83666992 C-61.70791658 38.12826711 -60.47298008 36.90213945 -58.34204102 35.83666992 C-57.68204102 34.84666992 -57.02204102 33.85666992 -56.34204102 32.83666992 C-55.35204102 32.83666992 -54.36204102 32.83666992 -53.34204102 32.83666992 C-51.46844617 31.87899364 -51.46844617 31.87899364 -49.51782227 30.52026367 C-48.74784912 30.01043945 -47.97787598 29.50061523 -47.18457031 28.9753418 C-46.34966064 28.41395508 -45.51475098 27.85256836 -44.65454102 27.27416992 C-35.692357 21.33870662 -26.62316463 15.60088049 -17.47802734 9.95166016 C-16.51920654 9.35683838 -15.56038574 8.7620166 -14.57250977 8.14916992 C-13.66678223 7.58842773 -12.76105469 7.02768555 -11.82788086 6.44995117 C-9.60410403 5.00674578 -7.54067678 3.46941986 -5.45532227 1.83666992 C-2.34204102 -0.16333008 -2.34204102 -0.16333008 0 0 Z " fill="#B8956A" transform="translate(529.342041015625,410.163330078125)"/>
<path d="M0 0 C0.87454834 0.00523682 1.74909668 0.01047363 2.65014648 0.01586914 C3.50036377 0.0183667 4.35058105 0.02086426 5.2265625 0.0234375 C6.85742798 0.03709351 6.85742798 0.03709351 8.52124023 0.05102539 C11.96561523 0.07165039 15.40999023 0.09227539 18.95874023 0.11352539 C18.95874023 7.04352539 18.95874023 13.97352539 18.95874023 21.11352539 C11.69874023 21.11352539 4.43874023 21.11352539 -3.04125977 21.11352539 C-3.06188477 17.83415039 -3.08250977 14.55477539 -3.10375977 11.17602539 C-3.11286377 10.14098877 -3.12196777 9.10595215 -3.13134766 8.03955078 C-3.13509399 6.82513306 -3.13509399 6.82513306 -3.13891602 5.58618164 C-3.14415283 4.75352783 -3.14938965 3.92087402 -3.15478516 3.06298828 C-2.99707919 0.35485463 -2.70687131 0.15054361 0 0 Z " fill="#BA9971" transform="translate(507.041259765625,443.886474609375)"/>
<path d="M0 0 C6.27 0 12.54 0 19 0 C19.144375 1.546875 19.28875 3.09375 19.4375 4.6875 C19.70964954 7.4839351 20.02763608 10.12712596 20.625 12.875 C21.04122533 15.23361018 20.75134348 16.74596957 20 19 C4.60526316 21.73684211 4.60526316 21.73684211 -1 18 C-1.2487793 16.12060547 -1.2487793 16.12060547 -1.07421875 13.8671875 C-1.02612061 13.14128418 -0.97802246 12.41538086 -0.9284668 11.66748047 C-0.84894775 10.74596191 -0.76942871 9.82444336 -0.6875 8.875 C-0.460625 5.94625 -0.23375 3.0175 0 0 Z " fill="#B28F64" transform="translate(531,470)"/>
<path d="M0 0 C0.99 0.66 1.98 1.32 3 2 C3.06116585 4.74620996 2.94178239 7.26516468 2.69140625 9.98828125 C2.11633573 17.93414703 1.89076964 25.82637134 1.90234375 33.79296875 C1.9033609 34.88618439 1.90437805 35.97940002 1.90542603 37.10574341 C1.91215542 40.46635266 1.92467978 43.82690904 1.9375 47.1875 C1.94253041 49.50976465 1.94709056 51.83203036 1.95117188 54.15429688 C1.962043 59.76955508 1.97865632 65.38477232 2 71 C1.67 71 1.34 71 1 71 C0.04268561 66.01398756 -0.27334807 61.12019589 -0.5 56.0625 C-0.74405401 50.64359714 -1.14366735 45.35921515 -2 40 C-4.42005138 42.42005138 -4.26329238 43.04311221 -4.31884766 46.35791016 C-4.33871735 47.25869293 -4.35858704 48.15947571 -4.37905884 49.08755493 C-4.39061005 50.06155243 -4.40216125 51.03554993 -4.4140625 52.0390625 C-4.43342865 53.03505463 -4.4527948 54.03104675 -4.4727478 55.05722046 C-4.53264965 58.2463925 -4.57897138 61.43560043 -4.625 64.625 C-4.66317001 66.78387013 -4.70222116 68.94272488 -4.7421875 71.1015625 C-4.8383597 76.40090534 -4.92337589 81.70034043 -5 87 C-5.33 87 -5.66 87 -6 87 C-6.70192709 72.43779839 -7.20391565 57.95065204 -6.6875 43.375 C-6.65277588 42.29371826 -6.61805176 41.21243652 -6.58227539 40.09838867 C-6.29208403 33.25572968 -5.40531748 26.70202797 -4 20 C-3.34 20 -2.68 20 -2 20 C-1.93941406 18.80761719 -1.87882813 17.61523438 -1.81640625 16.38671875 C-1.73198851 14.82030075 -1.64734113 13.25389512 -1.5625 11.6875 C-1.52318359 10.90181641 -1.48386719 10.11613281 -1.44335938 9.30664062 C-1.40146484 8.54931641 -1.35957031 7.79199219 -1.31640625 7.01171875 C-1.27974854 6.31522217 -1.24309082 5.61872559 -1.20532227 4.90112305 C-1 3 -1 3 0 0 Z " fill="#B18958" transform="translate(253,454)"/>
<path d="M0 0 C0.33 0 0.66 0 1 0 C1.33 14.52 1.66 29.04 2 44 C3.98 43.505 3.98 43.505 6 43 C6.33 41.68 6.66 40.36 7 39 C6.80908559 46.41095012 5.3371824 53.44392412 3.625 60.625 C3.41593018 61.50696045 3.20686035 62.3889209 2.99145508 63.29760742 C-0.56805643 77.85208464 -0.56805643 77.85208464 -4 83 C-4.96772503 79.88882168 -4.98292793 77.60921562 -4.4765625 74.40234375 C-4.3425 73.51740234 -4.2084375 72.63246094 -4.0703125 71.72070312 C-3.84988281 70.34301758 -3.84988281 70.34301758 -3.625 68.9375 C-3.3434146 67.13457124 -3.06477503 65.33117996 -2.7890625 63.52734375 C-2.66225098 62.73062256 -2.53543945 61.93390137 -2.40478516 61.11303711 C-1.30214409 52.6330756 -0.83063065 44.18999343 -0.68359375 35.64453125 C-0.66281265 34.61688156 -0.64203156 33.58923187 -0.62062073 32.53044128 C-0.55594207 29.29118657 -0.49662563 26.05186033 -0.4375 22.8125 C-0.39423682 20.5983003 -0.35062024 18.38410747 -0.30664062 16.16992188 C-0.20034623 10.78002055 -0.09843809 5.39005023 0 0 Z " fill="#BDA587" transform="translate(791,468)"/>
<path d="M0 0 C1.26869997 3.8060999 0.44143606 6.61702109 -0.3125 10.4375 C-5.08383684 37.3417009 -4.2465472 64.78877526 -4 92 C-4.33 92 -4.66 92 -5 92 C-5.98014209 82.85051868 -6.15533073 73.78175866 -6.13037109 64.59277344 C-6.12504015 62.26751083 -6.13033338 59.94244406 -6.13671875 57.6171875 C-6.13836761 48.71097726 -5.80498826 39.9272868 -5.01904297 31.05371094 C-5.01275879 30.04598633 -5.00647461 29.03826172 -5 28 C-5.66 27.34 -6.32 26.68 -7 26 C-6.95875 27.134375 -6.9175 28.26875 -6.875 29.4375 C-6.85816159 34.14383562 -7.82378223 38.46316004 -9 43 C-9.66 43 -10.32 43 -11 43 C-11.33 46.63 -11.66 50.26 -12 54 C-12.33 54 -12.66 54 -13 54 C-12.39544493 37.1631412 -9.50386961 14.25580442 0 0 Z " fill="#BBA181" transform="translate(260,431)"/>
<path d="M0 0 C6.93 0 13.86 0 21 0 C21.81991286 3.27965144 22.12836458 5.55057071 22.1328125 8.8515625 C22.13474609 10.25341797 22.13474609 10.25341797 22.13671875 11.68359375 C22.13285156 12.65425781 22.12898437 13.62492187 22.125 14.625 C22.13080078 16.04619141 22.13080078 16.04619141 22.13671875 17.49609375 C22.1282023 23.72162129 21.74115741 29.81918617 21 36 C20.67 36 20.34 36 20 36 C20 32.7 20 29.4 20 26 C13.73 26 7.46 26 1 26 C1 31.94 1 37.88 1 44 C0.67 44 0.34 44 0 44 C0 38.72 0 33.44 0 28 C-1.29633621 29.06645115 -1.29633621 29.06645115 -1.0625 31.5625 C-1.041875 32.366875 -1.02125 33.17125 -1 34 C-1.66 34 -2.32 34 -3 34 C-3.33 37.63 -3.66 41.26 -4 45 C-4.33 45 -4.66 45 -5 45 C-5.05807043 41.89591193 -5.09361914 38.7919636 -5.125 35.6875 C-5.14175781 34.80642578 -5.15851562 33.92535156 -5.17578125 33.01757812 C-5.18222656 32.17001953 -5.18867187 31.32246094 -5.1953125 30.44921875 C-5.20578613 29.66893311 -5.21625977 28.88864746 -5.22705078 28.0847168 C-5 26 -5 26 -3 23 C-2.67 23.99 -2.34 24.98 -2 26 C-0.68 25.67 0.64 25.34 2 25 C2 24.34 2 23.68 2 23 C1.34 22.67 0.68 22.34 0 22 C0.99 22 1.98 22 3 22 C3 22.99 3 23.98 3 25 C8.94 25 14.88 25 21 25 C20.67 23.68 20.34 22.36 20 21 C12.74 21 5.48 21 -2 21 C-1.34 20.67 -0.68 20.34 0 20 C-0.08378906 18.72382813 -0.16757812 17.44765625 -0.25390625 16.1328125 C-0.35706232 14.46355965 -0.45991099 12.79428779 -0.5625 11.125 C-0.61857422 10.28324219 -0.67464844 9.44148438 -0.73242188 8.57421875 C-0.78076172 7.76855469 -0.82910156 6.96289062 -0.87890625 6.1328125 C-0.9260376 5.38918457 -0.97316895 4.64555664 -1.02172852 3.87939453 C-1 2 -1 2 0 0 Z M1 1 C1 7.27 1 13.54 1 20 C7.27 20 13.54 20 20 20 C20 13.73 20 7.46 20 1 C13.73 1 7.46 1 1 1 Z " fill="#BEA482" transform="translate(530,444)"/>
<path d="M0 0 C6.6 0 13.2 0 20 0 C20 6.93 20 13.86 20 21 C13.07 20.67 6.14 20.34 -1 20 C-1.07866359 13.07760427 -0.86502687 6.92021496 0 0 Z M2 3 C2 7.95 2 12.9 2 18 C7.61 18 13.22 18 19 18 C19 13.05 19 8.1 19 3 C13.39 3 7.78 3 2 3 Z " fill="#AD8A60" transform="translate(505,469)"/>
<path d="M0 0 C0.33 0 0.66 0 1 0 C1.95322415 6.82224891 2.3044905 13.57976632 2.51757812 20.4609375 C2.55173828 21.275625 2.58589844 22.0903125 2.62109375 22.9296875 C2.6461499 23.66429199 2.67120605 24.39889648 2.69702148 25.15576172 C2.85616072 27.24491002 2.85616072 27.24491002 5 29 C5.495 24.545 5.495 24.545 6 20 C6.33 20 6.66 20 7 20 C7.5303397 35.23253485 7.5303397 35.23253485 5 42 C2.921875 43.30859375 2.921875 43.30859375 1 44 C0 43 0 43 -0.12025452 41.24729919 C-0.11803391 40.48562943 -0.11581329 39.72395966 -0.11352539 38.93920898 C-0.11344986 38.07839218 -0.11337433 37.21757538 -0.11329651 36.33067322 C-0.10813522 35.39526199 -0.10297394 34.45985077 -0.09765625 33.49609375 C-0.0962413 32.54307877 -0.09482635 31.59006378 -0.09336853 30.60816956 C-0.08775152 27.55124835 -0.07519616 24.49439923 -0.0625 21.4375 C-0.05748719 19.37044376 -0.05292391 17.30338638 -0.04882812 15.23632812 C-0.03777656 10.15752412 -0.02050055 5.0787743 0 0 Z " fill="#B28958" transform="translate(792,469)"/>
<path d="M0 0 C7.16562789 -0.28100502 13.94546999 0.79556805 21 2 C21 2.33 21 2.66 21 3 C19.35 3.33 17.7 3.66 16 4 C16.66 4.66 17.32 5.32 18 6 C16.35 6 14.7 6 13 6 C13.99 6.66 14.98 7.32 16 8 C13.6875 8.625 13.6875 8.625 11 9 C10.01 8.34 9.02 7.68 8 7 C5.88158412 6.45642729 5.88158412 6.45642729 3.55078125 6.1484375 C2.70322266 6.01953125 1.85566406 5.890625 0.98242188 5.7578125 C0.10134766 5.63148438 -0.77972656 5.50515625 -1.6875 5.375 C-2.58017578 5.2409375 -3.47285156 5.106875 -4.39257812 4.96875 C-6.59414427 4.63910373 -8.79650647 4.31646086 -11 4 C-11 3.67 -11 3.34 -11 3 C-9.58456585 2.80341192 -8.16755969 2.61812454 -6.75 2.4375 C-5.96109375 2.33308594 -5.1721875 2.22867188 -4.359375 2.12109375 C-1.99467126 1.99972651 -0.2488963 2.30366743 2 3 C2 2.34 2 1.68 2 1 C1.34 0.67 0.68 0.34 0 0 Z " fill="#BA9B76" transform="translate(581,215)"/>
<path d="M0 0 C7.08793831 -0.19819036 13.8105995 0.37220821 20.8125 1.4375 C28.87442359 2.60562851 36.86145994 3.55468366 45 4 C45 4.66 45 5.32 45 6 C29.81842356 8.44864136 14.66694406 4.82454491 0 1 C0 0.67 0 0.34 0 0 Z " fill="#AF8D63" transform="translate(483,785)"/>
<path d="M0 0 C0.33 0 0.66 0 1 0 C0.99476318 0.92635254 0.98952637 1.85270508 0.98413086 2.80712891 C0.96687006 6.31478525 0.95444519 9.82239507 0.94506836 13.33007812 C0.94010542 14.83496828 0.9333329 16.33985379 0.92456055 17.84472656 C0.86909244 27.62016382 1.13918899 37.25449358 2 47 C2.33 47 2.66 47 3 47 C3.10808032 54.09727428 2.93854006 60.96094956 2 68 C1.67 68 1.34 68 1 68 C-0.89662248 45.21783126 -1.71448073 22.80871687 0 0 Z " fill="#BB9F7D" transform="translate(246,487)"/>
<path d="M0 0 C5.94 0 11.88 0 18 0 C18 0.33 18 0.66 18 1 C17.19175781 1.06058594 16.38351562 1.12117188 15.55078125 1.18359375 C13.94783203 1.30927734 13.94783203 1.30927734 12.3125 1.4375 C11.25675781 1.51871094 10.20101562 1.59992188 9.11328125 1.68359375 C5.66594348 1.98364225 5.66594348 1.98364225 1 3 C1 7.95 1 12.9 1 18 C6.61 18 12.22 18 18 18 C18 13.05 18 8.1 18 3 C18.33 3 18.66 3 19 3 C19 8.28 19 13.56 19 19 C12.73 19 6.46 19 0 19 C0 12.73 0 6.46 0 0 Z " fill="#AD824E" transform="translate(506,445)"/>
<path d="M0 0 C4.28180292 2.56908175 6.7848309 4.51945967 9 9 C9.765625 12.33984375 9.765625 12.33984375 10.25 15.9375 C10.42015625 17.12214844 10.5903125 18.30679688 10.765625 19.52734375 C10.99373107 22.90711535 10.70543272 25.69958261 10 29 C9.34 29 8.68 29 8 29 C7.67 29.66 7.34 30.32 7 31 C7.04640625 29.87722656 7.0928125 28.75445313 7.140625 27.59765625 C7.62567118 15.7191593 7.62567118 15.7191593 3 5 C2.45988281 4.47148438 1.91976562 3.94296875 1.36328125 3.3984375 C0 2 0 2 0 0 Z " fill="#B18E61" transform="translate(566,671)"/>
<path d="M0 0 C0.99 0 1.98 0 3 0 C3.30748219 5.7883523 2.24369016 10.43780698 0.5 15.9375 C0.26152344 16.71673828 0.02304687 17.49597656 -0.22265625 18.29882812 C-0.80642178 20.20190376 -1.40199976 22.10134922 -2 24 C-2.66 23.67 -3.32 23.34 -4 23 C-2.07289294 7.25512528 -2.07289294 7.25512528 0 0 Z " fill="#B39D81" transform="translate(790,527)"/>
<path d="M0 0 C1.58294782 -0.05437607 3.16644256 -0.09296271 4.75 -0.125 C5.63171875 -0.14820313 6.5134375 -0.17140625 7.421875 -0.1953125 C10.1135858 0.00860498 11.69904974 0.63448279 14 2 C12.35 2.33 10.7 2.66 9 3 C13.95 4.98 13.95 4.98 19 7 C19 7.33 19 7.66 19 8 C13.5814234 8.22577402 9.22512279 7.46670113 4 6 C4 5.34 4 4.68 4 4 C1.03 3.505 1.03 3.505 -2 3 C-0.68 2.67 0.64 2.34 2 2 C1.34 1.67 0.68 1.34 0 1 C0 0.67 0 0.34 0 0 Z " fill="#B38D5F" transform="translate(593,218)"/>
<path d="M0 0 C0.33 0 0.66 0 1 0 C1.04945571 5.76577504 1.0857461 11.53142646 1.10986328 17.29736328 C1.11991783 19.25864818 1.13356333 21.21991811 1.15087891 23.18115234 C1.17515113 26.00101418 1.18648859 28.82067772 1.1953125 31.640625 C1.20563507 32.51680481 1.21595764 33.39298462 1.22659302 34.29571533 C1.22674408 35.11626404 1.22689514 35.93681274 1.22705078 36.78222656 C1.231492 37.50170471 1.23593323 38.22118286 1.24050903 38.96246338 C0.96199823 41.32194212 0.16589346 42.94641346 -1 45 C-1.66 43.68 -2.32 42.36 -3 41 C-2.505 40.505 -2.505 40.505 -2 40 C-1.768169 37.04639306 -1.59609469 34.11092803 -1.46484375 31.15234375 C-1.42186661 30.2659169 -1.37888947 29.37949005 -1.33460999 28.46620178 C-1.19780965 25.62349232 -1.06758864 22.78052376 -0.9375 19.9375 C-0.84613497 18.01495339 -0.75434375 16.09242698 -0.66210938 14.16992188 C-0.43645267 9.44683518 -0.21669773 4.72350588 0 0 Z " fill="#60564D" transform="translate(645,344)"/>
<path d="M0 0 C0.59619141 0.20447754 1.19238281 0.40895508 1.80664062 0.61962891 C-0.60921059 2.55814744 -3.0261844 4.49526134 -5.44335938 6.43212891 C-6.46623047 7.25293945 -6.46623047 7.25293945 -7.50976562 8.09033203 C-10.703401 10.64834095 -13.8949155 13.19680286 -17.19335938 15.61962891 C-17.85335938 15.28962891 -18.51335937 14.95962891 -19.19335938 14.61962891 C-16.12220632 10.44948481 -12.75328909 7.38393964 -8.69335938 4.24462891 C-8.12488281 3.78185547 -7.55640625 3.31908203 -6.97070312 2.84228516 C-2.70940216 -0.46986293 -2.70940216 -0.46986293 0 0 Z " fill="#B49369" transform="translate(465.193359375,407.38037109375)"/>
<path d="M0 0 C0.33 0 0.66 0 1 0 C0.95485141 9.39090589 -2.52715351 17.44001752 -6 26 C-6.33 26 -6.66 26 -7 26 C-7.20756265 21.50727289 -6.59187804 18.15553551 -5.0625 13.9375 C-3.75491762 10.29595338 -2.66500206 6.8150118 -2 3 C-1.34 3 -0.68 3 0 3 C0 2.01 0 1.02 0 0 Z " fill="#333231" transform="translate(680,653)"/>
<path d="M0 0 C0.99 0.33 1.98 0.66 3 1 C1.04653795 2.67268922 -0.91229814 4.33821581 -2.875 6 C-3.70837891 6.71542969 -3.70837891 6.71542969 -4.55859375 7.4453125 C-8.7734375 11 -8.7734375 11 -11 11 C-11.33 11.99 -11.66 12.98 -12 14 C-13.65 14.33 -15.3 14.66 -17 15 C-17.33 14.34 -17.66 13.68 -18 13 C-17.31164062 12.61328125 -16.62328125 12.2265625 -15.9140625 11.828125 C-11.89838505 9.30890644 -8.29516563 6.33283924 -4.640625 3.3203125 C-3.15200823 2.13634288 -1.58002447 1.05890822 0 0 Z " fill="#AA885C" transform="translate(413,447)"/>
<path d="M0 0 C0.99 0 1.98 0 3 0 C3.84454356 3.37817425 4.10844919 5.67465243 3 9 C-12.39473684 11.73684211 -12.39473684 11.73684211 -18 8 C-12.06 7.67 -6.12 7.34 0 7 C0 4.69 0 2.38 0 0 Z " fill="#AE906A" transform="translate(548,480)"/>
<path d="M0 0 C1.72990025 0.93614567 3.45888696 1.87397958 5.1875 2.8125 C6.15042969 3.33457031 7.11335937 3.85664063 8.10546875 4.39453125 C9.06066406 4.92433594 10.01585937 5.45414062 11 6 C11.94488281 6.51949219 12.88976562 7.03898437 13.86328125 7.57421875 C14.56839844 8.04472656 15.27351562 8.51523437 16 9 C16 9.66 16 10.32 16 11 C12.58558238 10.21205747 9.27923505 9.23882213 6 8 C5.67 7.34 5.34 6.68 5 6 C2.6859378 5.26924352 0.35171131 4.59861742 -2 4 C-1.34 2.68 -0.68 1.36 0 0 Z " fill="#B5946C" transform="translate(575,439)"/>
<path d="M0 0 C0.99457718 0.00212242 0.99457718 0.00212242 2.00924683 0.00428772 C4.12860613 0.00988871 6.24786009 0.02244125 8.3671875 0.03515625 C9.80338389 0.04017113 11.23958194 0.04473406 12.67578125 0.04882812 C16.19795095 0.05985843 19.72005895 0.07712366 23.2421875 0.09765625 C23.2421875 0.42765625 23.2421875 0.75765625 23.2421875 1.09765625 C16.6421875 1.09765625 10.0421875 1.09765625 3.2421875 1.09765625 C3.2421875 1.75765625 3.2421875 2.41765625 3.2421875 3.09765625 C-5.32924107 3.38337054 -5.32924107 3.38337054 -8.7578125 1.09765625 C-5.8358356 -0.3633322 -3.25887775 -0.01369276 0 0 Z " fill="#AE977B" transform="translate(556.7578125,213.90234375)"/>
<path d="M0 0 C0.66 0.33 1.32 0.66 2 1 C-3.32534912 6.85788403 -9.95043936 12.90755963 -18 14 C-18 13.34 -18 12.68 -18 12 C-16.36454276 10.94973461 -14.68853159 9.96262082 -13 9 C-10.70336913 7.47464115 -8.44715168 5.89198897 -6.1875 4.3125 C-5.59001953 3.89677734 -4.99253906 3.48105469 -4.37695312 3.05273438 C-2.9169717 2.0365873 -1.45834569 1.01849325 0 0 Z " fill="#AF8D60" transform="translate(435,453)"/>
<path d="M0 0 C0.85078125 0.34417969 0.85078125 0.34417969 1.71875 0.6953125 C-0.03040445 2.13384125 -1.78060795 3.57109448 -3.53125 5.0078125 C-4.99304688 6.20857422 -4.99304688 6.20857422 -6.484375 7.43359375 C-8.7178762 9.23973508 -10.96812263 10.99351165 -13.28125 12.6953125 C-13.94125 12.3653125 -14.60125 12.0353125 -15.28125 11.6953125 C-12.22429071 7.30924048 -5.88790349 -0.78639807 0 0 Z " fill="#B49062" transform="translate(525.28125,361.3046875)"/>
<path d="M0 0 C6.78661213 0.78914095 13.36149367 2.41274811 20 4 C20 4.33 20 4.66 20 5 C7.17631533 5.56853774 7.17631533 5.56853774 1 2 C0.67 1.34 0.34 0.68 0 0 Z " fill="#B79161" transform="translate(476,738)"/>
<path d="M0 0 C0.33 0 0.66 0 1 0 C1 9.9 1 19.8 1 30 C0.34 30 -0.32 30 -1 30 C-1.33 30.99 -1.66 31.98 -2 33 C-1.34 22.11 -0.68 11.22 0 0 Z " fill="#161514" transform="translate(681,623)"/>
<path d="M0 0 C0.66 0.33 1.32 0.66 2 1 C-2.42684167 6.73849846 -7.40243813 11.44384499 -13 16 C-13 13 -13 13 -11.80664062 11.46606445 C-11.26201172 10.937146 -10.71738281 10.40822754 -10.15625 9.86328125 C-9.56972656 9.28642578 -8.98320312 8.70957031 -8.37890625 8.11523438 C-7.75886719 7.52033203 -7.13882812 6.92542969 -6.5 6.3125 C-5.87996094 5.70599609 -5.25992187 5.09949219 -4.62109375 4.47460938 C-3.08735293 2.97626257 -1.54451802 1.48723507 0 0 Z " fill="#3E3C3A" transform="translate(398,287)"/>
<path d="M0 0 C3.88609811 1.75066796 7.27812258 4.18324006 10.75 6.625 C11.35199219 7.04523438 11.95398438 7.46546875 12.57421875 7.8984375 C14.05113043 8.92993137 15.52579194 9.96464579 17 11 C15.3515625 11.73046875 15.3515625 11.73046875 13 12 C10.2734375 10.48828125 10.2734375 10.48828125 7.375 8.3125 C6.41335938 7.60738281 5.45171875 6.90226562 4.4609375 6.17578125 C2.17182042 4.15191107 1.07892998 2.8115646 0 0 Z " fill="#B59061" transform="translate(593,435)"/>
<path d="M0 0 C1.17755859 0.14695313 1.17755859 0.14695313 2.37890625 0.296875 C3.55259766 0.42835938 3.55259766 0.42835938 4.75 0.5625 C6.94140625 1.046875 6.94140625 1.046875 9.94140625 3.046875 C7.63140625 2.716875 5.32140625 2.386875 2.94140625 2.046875 C2.61140625 3.036875 2.28140625 4.026875 1.94140625 5.046875 C0.95140625 5.541875 0.95140625 5.541875 -0.05859375 6.046875 C0.27140625 6.706875 0.60140625 7.366875 0.94140625 8.046875 C-2.02859375 7.551875 -2.02859375 7.551875 -5.05859375 7.046875 C-3.96016737 0.09017459 -3.96016737 0.09017459 0 0 Z " fill="#B79770" transform="translate(614.05859375,219.953125)"/>
<path d="M0 0 C5.24675084 5.93110964 4.1194553 13.54067996 4 21 C0.10361342 17.10361342 0.15966065 9.99862655 -0.125 4.65234375 C-0.125 3.10100285 -0.07044276 1.54974076 0 0 Z " fill="#B58D5D" transform="translate(256,537)"/>
<path d="M0 0 C0.33 0 0.66 0 1 0 C1 10.56 1 21.12 1 32 C-0.32 32 -1.64 32 -3 32 C-3.33 31.34 -3.66 30.68 -4 30 C-2.68 30 -1.36 30 0 30 C0 20.1 0 10.2 0 0 Z " fill="#30302E" transform="translate(642,352)"/>
<path d="M0 0 C3.13929437 0.29763062 4.01090653 1.01202264 6.17578125 3.3984375 C7.23345703 4.87183594 7.23345703 4.87183594 8.3125 6.375 C9.03050781 7.35210937 9.74851562 8.32921875 10.48828125 9.3359375 C10.98714844 10.21507812 11.48601562 11.09421875 12 12 C11.67 12.99 11.34 13.98 11 15 C6.62294157 10.26638344 2.9826263 5.7266425 0 0 Z " fill="#383431" transform="translate(377,469)"/>
<path d="M0 0 C0.33 0 0.66 0 1 0 C0.62879417 5.93929328 -1.0979896 10.42486651 -5 15 C-7.16796875 16.23046875 -7.16796875 16.23046875 -9 17 C-7.21873667 13.3655031 -5.29802134 9.81115063 -3.375 6.25 C-2.88773438 5.34701172 -2.88773438 5.34701172 -2.390625 4.42578125 C-1.59429415 2.95022703 -0.79722161 1.47507314 0 0 Z " fill="#3F3933" transform="translate(591,705)"/>
<path d="M0 0 C1.485 0.99 1.485 0.99 3 2 C3.43237305 4.24658203 3.43237305 4.24658203 3.51171875 7.0078125 C3.54716797 7.99394531 3.58261719 8.98007812 3.61914062 9.99609375 C3.64169922 11.02863281 3.66425781 12.06117188 3.6875 13.125 C3.72166016 14.16527344 3.75582031 15.20554687 3.79101562 16.27734375 C3.87367058 18.85145507 3.94276155 21.42521829 4 24 C3.67 24 3.34 24 3 24 C2.49515526 20.75073335 1.99697406 17.50047901 1.5 14.25 C1.35691406 13.32960938 1.21382812 12.40921875 1.06640625 11.4609375 C0.93105469 10.57148438 0.79570313 9.68203125 0.65625 8.765625 C0.53056641 7.94868164 0.40488281 7.13173828 0.27539062 6.29003906 C0 4 0 4 0 0 Z " fill="#B28958" transform="translate(794,414)"/>
<path d="M0 0 C1.69867188 0.14777936 3.40177489 0.24747066 5.10546875 0.31640625 C6.57983398 0.37924805 6.57983398 0.37924805 8.08398438 0.44335938 C9.62022461 0.50233398 9.62022461 0.50233398 11.1875 0.5625 C12.74114258 0.62727539 12.74114258 0.62727539 14.32617188 0.69335938 C16.8839819 0.79944366 19.44188845 0.90150146 22 1 C22 1.33 22 1.66 22 2 C17.97918212 2.02921779 13.95839186 2.04687188 9.9375 2.0625 C8.2369043 2.07506836 8.2369043 2.07506836 6.50195312 2.08789062 C0.89121133 2.10424847 -4.47649331 2.01812097 -10 1 C-10 0.67 -10 0.34 -10 0 C-3.375 -1.125 -3.375 -1.125 0 0 Z " fill="#BFA27D" transform="translate(499,743)"/>
<path d="M0 0 C0.66 0 1.32 0 2 0 C0.55463213 3.5667949 -1.19740946 5.18530899 -4.375 7.3125 C-5.14585937 7.84488281 -5.91671875 8.37726562 -6.7109375 8.92578125 C-9 10 -9 10 -11.2890625 9.66796875 C-11.85367188 9.44753906 -12.41828125 9.22710938 -13 9 C-11.71802734 8.15115234 -11.71802734 8.15115234 -10.41015625 7.28515625 C-9.2942305 6.54433159 -8.17834728 5.80344286 -7.0625 5.0625 C-6.49853516 4.68931641 -5.93457031 4.31613281 -5.35351562 3.93164062 C-2.53966389 2.14034283 -2.53966389 2.14034283 0 0 Z " fill="#B28D5F" transform="translate(554,726)"/>
<path d="M0 0 C0.66 0.33 1.32 0.66 2 1 C2 2.98 2 4.96 2 7 C1.34 7 0.68 7 0 7 C0 7.99 0 8.98 0 10 C-0.99 10 -1.98 10 -3 10 C-3 7.03 -3 4.06 -3 1 C-2.01 1.495 -2.01 1.495 -1 2 C-0.67 1.34 -0.34 0.68 0 0 Z " fill="#AF8B5B" transform="translate(794,516)"/>
<path d="M0 0 C0.99 0.66 1.98 1.32 3 2 C2.34 4.31 1.68 6.62 1 9 C0.34 9 -0.32 9 -1 9 C-1 9.99 -1 10.98 -1 12 C-1.66 12 -2.32 12 -3 12 C-3.33 12.66 -3.66 13.32 -4 14 C-3.00956295 9.16371695 -2.04301154 4.52381127 0 0 Z " fill="#353333" transform="translate(362,336)"/>
<path d="M0 0 C0.66 0 1.32 0 2 0 C1.44010697 3.99012371 0.24330232 6.5255052 -2.0625 9.8125 C-2.88427734 10.99779297 -2.88427734 10.99779297 -3.72265625 12.20703125 C-4.35494141 13.09455078 -4.35494141 13.09455078 -5 14 C-5.99 13.67 -6.98 13.34 -8 13 C-7.50628906 12.22914063 -7.01257813 11.45828125 -6.50390625 10.6640625 C-5.86324219 9.66117188 -5.22257813 8.65828125 -4.5625 7.625 C-3.92441406 6.62726562 -3.28632812 5.62953125 -2.62890625 4.6015625 C-1.03100789 2.14169479 -1.03100789 2.14169479 0 0 Z " fill="#B08D60" transform="translate(571,705)"/>
<path d="M0 0 C3.68069887 1.53643852 5.98775204 3.78150945 8.75 6.625 C9.54921875 7.44226563 10.3484375 8.25953125 11.171875 9.1015625 C12.07679688 10.04128906 12.07679688 10.04128906 13 11 C12.67 11.66 12.34 12.32 12 13 C10.36493227 11.78425776 8.7422814 10.55180487 7.125 9.3125 C6.22007812 8.62800781 5.31515625 7.94351563 4.3828125 7.23828125 C1.89441448 4.90081884 0.98400129 3.22910769 0 0 Z " fill="#292623" transform="translate(568,599)"/>
<path d="M0 0 C0.99 0.33 1.98 0.66 3 1 C-2.445 5.455 -2.445 5.455 -8 10 C-8.66 9.67 -9.32 9.34 -10 9 C-7.13553107 5.03381225 -4.29697535 2.37705019 0 0 Z " fill="#B48F60" transform="translate(491,386)"/>
<path d="M0 0 C0.99 0.33 1.98 0.66 3 1 C4.99186369 6.13691161 5.1921227 10.52450293 5 16 C3.13389074 13.20083611 2.31214617 11.18061731 1.375 8 C1.11460937 7.13375 0.85421875 6.2675 0.5859375 5.375 C0 3 0 3 0 0 Z " fill="#B48F61" transform="translate(786,383)"/>
<path d="M0 0 C0.99 0.33 1.98 0.66 3 1 C-2.445 5.455 -2.445 5.455 -8 10 C-8.66 9.67 -9.32 9.34 -10 9 C-3.73362445 2.55458515 -3.73362445 2.55458515 0 0 Z " fill="#AE8A5D" transform="translate(427,436)"/>
<path d="M0 0 C1.875 1.5 1.875 1.5 3 3 C1 4 1 4 -1.25 3.375 C-4.93319078 2.87274671 -6.78601539 4.28587487 -10 6 C-10.66 5.67 -11.32 5.34 -12 5 C-7.93459929 0.79908593 -5.97546262 -0.48779287 0 0 Z " fill="#BC9B72" transform="translate(531,420)"/>
<path d="M0 0 C5.62541841 0.45003347 8.61487125 1.68441485 13 5 C12.67 5.99 12.34 6.98 12 8 C11.46890625 7.66226563 10.9378125 7.32453125 10.390625 6.9765625 C9.68421875 6.53054688 8.9778125 6.08453125 8.25 5.625 C7.55390625 5.18414063 6.8578125 4.74328125 6.140625 4.2890625 C4.13482617 3.08119094 2.10821704 2.01612263 0 1 C0 0.67 0 0.34 0 0 Z " fill="#B49062" transform="translate(549,660)"/>
<path d="M0 0 C4.9430602 0.49430602 8.74976194 1.36890025 13 4 C13.33 4.99 13.66 5.98 14 7 C9.0276578 5.50829734 4.58154261 3.39542583 0 1 C0 0.67 0 0.34 0 0 Z " fill="#3F3B38" transform="translate(501,563)"/>
<path d="M0 0 C9.59453303 2.89066059 9.59453303 2.89066059 13 6 C10.60042386 6.84119973 9.35077442 7.11193544 6.89453125 6.328125 C6.20746094 5.97234375 5.52039063 5.6165625 4.8125 5.25 C4.11769531 4.90453125 3.42289063 4.5590625 2.70703125 4.203125 C1 3 1 3 0 0 Z " fill="#3F3A35" transform="translate(587,264)"/>
<path d="M0 0 C0 0.33 0 0.66 0 1 C-2.20826378 1.02722517 -4.41662638 1.04649729 -6.625 1.0625 C-7.85476563 1.07410156 -9.08453125 1.08570313 -10.3515625 1.09765625 C-13.67723791 1.00863924 -16.74047588 0.63686087 -20 0 C-20 -0.33 -20 -0.66 -20 -1 C-13.13638499 -2.59618954 -6.85445096 -1.24720085 0 0 Z " fill="#B3936B" transform="translate(590,219)"/>
<path d="M0 0 C3.87302138 1.14430177 7.00263439 2.23320098 10 5 C10 5.66 10 6.32 10 7 C5.76570244 5.68938409 1.92592596 4.05643741 -2 2 C-1.34 1.34 -0.68 0.68 0 0 Z " fill="#403C39" transform="translate(484,553)"/>
<path d="M0 0 C2.84614024 2.84614024 2.45579076 5.80369142 2.625 9.625 C2.68300781 10.68460938 2.68300781 10.68460938 2.7421875 11.765625 C2.83647724 13.50998524 2.91932891 15.25495691 3 17 C2.67 16.01 2.34 15.02 2 14 C1.34 14 0.68 14 0 14 C0.020625 12.7625 0.04125 11.525 0.0625 10.25 C0.07291197 7.30341276 -0.23285893 4.84938113 -1 2 C-0.67 1.34 -0.34 0.68 0 0 Z " fill="#BC9B74" transform="translate(255,523)"/>
<path d="M0 0 C0.33 0 0.66 0 1 0 C0.67 3.63 0.34 7.26 0 11 C-0.66 11 -1.32 11 -2 11 C-2.33 11.66 -2.66 12.32 -3 13 C-3.31563182 7.73946963 -2.66590937 4.55426184 0 0 Z " fill="#AB8556" transform="translate(257,440)"/>
<path d="M0 0 C3.48354375 5.22531563 4.30934332 10.8131337 4 17 C0.89141572 13.89141572 0.11788727 10.11091901 -0.125 5.76171875 C-0.125 3.84069391 -0.06736293 1.9198434 0 0 Z " fill="#373331" transform="translate(357,420)"/>
<path d="M0 0 C0.66 0.33 1.32 0.66 2 1 C-0.45627573 3.631724 -2.55352037 5.81527263 -6 7 C-7.34364362 6.71101782 -8.67986936 6.38228783 -10 6 C-8.3811004 4.96951963 -6.75467511 3.95085322 -5.125 2.9375 C-4.22007812 2.36902344 -3.31515625 1.80054688 -2.3828125 1.21484375 C-1.20332031 0.61349609 -1.20332031 0.61349609 0 0 Z " fill="#3D3A38" transform="translate(428,267)"/>
<path d="M0 0 C1.485 0.99 1.485 0.99 3 2 C4.00370475 7.01852377 4.13353892 10.96204923 3 16 C2.67 16 2.34 16 2 16 C1.66104344 14.27192682 1.32908475 12.54248026 1 10.8125 C0.814375 9.84957031 0.62875 8.88664063 0.4375 7.89453125 C0.03122388 5.2065794 -0.07933572 2.71228981 0 0 Z " fill="#BD9C73" transform="translate(358,598)"/>
<path d="M0 0 C0.99 0 1.98 0 3 0 C2.343621 4.48525648 1.29925791 8.66914029 0 13 C-0.33 13 -0.66 13 -1 13 C-0.67 8.71 -0.34 4.42 0 0 Z " fill="#A8804C" transform="translate(790,527)"/>
<path d="M0 0 C12.66970387 0.96355353 12.66970387 0.96355353 18 2 C18 2.33 18 2.66 18 3 C16.58456585 3.19658808 15.16755969 3.38187546 13.75 3.5625 C12.96109375 3.66691406 12.1721875 3.77132812 11.359375 3.87890625 C8.99467126 4.00027349 7.2488963 3.69633257 5 3 C5 2.34 5 1.68 5 1 C3.35 1 1.7 1 0 1 C0 0.67 0 0.34 0 0 Z " fill="#4C4640" transform="translate(532,516)"/>
<path d="M0 0 C4.82034262 0.41317222 6.90992611 2.38019915 10 6 C10 6.66 10 7.32 10 8 C6.05205855 6.32971708 3.18203882 3.8204435 0 1 C0 0.67 0 0.34 0 0 Z " fill="#3B3734" transform="translate(415,510)"/>
<path d="M0 0 C0 0.66 0 1.32 0 2 C-3.58885375 2.81564858 -6.94585805 3.16216156 -10.625 3.1875 C-12.03652344 3.20876953 -12.03652344 3.20876953 -13.4765625 3.23046875 C-16 3 -16 3 -19 1 C-16.77100213 0.83109082 -14.54179338 0.66496313 -12.3125 0.5 C-10.45044922 0.36078125 -10.45044922 0.36078125 -8.55078125 0.21875 C-5.68500671 0.04220063 -2.86900043 -0.04388528 0 0 Z " fill="#A78964" transform="translate(549,487)"/>
<path d="M0 0 C0.33 0.66 0.66 1.32 1 2 C2.65 1.67 4.3 1.34 6 1 C5.67 1.99 5.34 2.98 5 4 C0.545 4.495 0.545 4.495 -4 5 C-2 1 -2 1 0 0 Z " fill="#B18A58" transform="translate(495,432)"/>
<path d="M0 0 C7.68490153 5.0940919 7.68490153 5.0940919 9 8.875 C9 9.57625 9 10.2775 9 11 C7.33333333 9.33333333 5.66666667 7.66666667 4 6 C3.236875 5.278125 2.47375 4.55625 1.6875 3.8125 C0 2 0 2 0 0 Z " fill="#B58F61" transform="translate(736,294)"/>
<path d="M0 0 C1.43793392 0.31049726 2.8753318 0.6234776 4.3125 0.9375 C5.11300781 1.11152344 5.91351562 1.28554687 6.73828125 1.46484375 C9 2 9 2 12 3 C12 3.66 12 4.32 12 5 C8.53058454 4.54177532 5.32604951 4.10868317 2 3 C2 2.34 2 1.68 2 1 C1.34 0.67 0.68 0.34 0 0 Z " fill="#B48F63" transform="translate(613,226)"/>
<path d="M0 0 C4.00653305 0.6163897 6.80463901 2.58572726 10 5 C10.33 5.99 10.66 6.98 11 8 C1.9 3.8 1.9 3.8 0 0 Z " fill="#B79060" transform="translate(373,734)"/>
<path d="M0 0 C1.23593891 3.70781672 0.5678132 4.67510253 -0.9375 8.1875 C-1.31777344 9.08855469 -1.69804688 9.98960937 -2.08984375 10.91796875 C-2.54037109 11.94857422 -2.54037109 11.94857422 -3 13 C-3.33 13 -3.66 13 -4 13 C-4.19622241 8.78121808 -3.80230168 5.82989106 -2 2 C-1.34 2 -0.68 2 0 2 C0 1.34 0 0.68 0 0 Z " fill="#3C3A39" transform="translate(677,666)"/>
<path d="M0 0 C-1.65 0.33 -3.3 0.66 -5 1 C-5 1.66 -5 2.32 -5 3 C-8.47325181 4.1577506 -11.36067448 4.06866652 -15 4 C-12.39457984 2.26305323 -10.41657225 1.30899552 -7.5 0.3125 C-6.33984375 -0.09548828 -6.33984375 -0.09548828 -5.15625 -0.51171875 C-3 -1 -3 -1 0 0 Z " fill="#44413F" transform="translate(466,254)"/>
<path d="M0 0 C1.15941038 3.47823115 0.70820884 5.45895578 0 9 C-0.99 9 -1.98 9 -3 9 C-3.33 9.66 -3.66 10.32 -4 11 C-3.48964169 6.6109185 -2.47785723 3.66291938 0 0 Z " fill="#AA9174" transform="translate(260,431)"/>
<path d="M0 0 C0.75 1.6875 0.75 1.6875 1 4 C-1.13381449 7.2769294 -2.25018012 8.75006004 -6 10 C-4.6302836 6.00499382 -2.74277578 3.19990508 0 0 Z " fill="#363532" transform="translate(378,309)"/>
<path d="M0 0 C4.55737263 0.43820891 7.57653445 0.85041169 11 4 C6.35108046 4.32434322 3.77593392 3.776422 0 1 C0 0.67 0 0.34 0 0 Z " fill="#383430" transform="translate(453,492)"/>
<path d="M0 0 C1.32 0.33 2.64 0.66 4 1 C3.01 1.33 2.02 1.66 1 2 C0.26676204 4.01508358 0.26676204 4.01508358 0 6 C-1.65 6 -3.3 6 -5 6 C-4.67 5.34 -4.34 4.68 -4 4 C-3.34 4 -2.68 4 -2 4 C-1.34 2.68 -0.68 1.36 0 0 Z " fill="#AE8857" transform="translate(485,437)"/>
<path d="M0 0 C7.57142857 3 7.57142857 3 10 6 C9.67 6.66 9.34 7.32 9 8 C7.49460339 7.05016642 5.99579653 6.08988109 4.5 5.125 C3.6646875 4.59132813 2.829375 4.05765625 1.96875 3.5078125 C1.3190625 3.01023437 0.669375 2.51265625 0 2 C0 1.34 0 0.68 0 0 Z " fill="#B18C5F" transform="translate(590,407)"/>
<path d="M0 0 C3.16115776 1.36983503 3.9927092 1.9890638 6 5 C5.625 7.1875 5.625 7.1875 5 9 C1.96130589 7.48065294 1.35589694 5.01995228 0 2 C0 1.34 0 0.68 0 0 Z " fill="#494238" transform="translate(437,407)"/>
<path d="M0 0 C0.33 0 0.66 0 1 0 C1.09038099 5.15171623 0.84681133 9.91913204 0 15 C-0.33 15 -0.66 15 -1 15 C-1.91457003 9.43842552 -2.32086397 5.324335 0 0 Z " fill="#3B3836" transform="translate(428,346)"/>
<path d="M0 0 C0.33 0 0.66 0 1 0 C2.125 6.75 2.125 6.75 1 9 C0.34 9 -0.32 9 -1 9 C-1.33 10.32 -1.66 11.64 -2 13 C-3.45047396 10.09905209 -2.45356803 8.44027404 -1.5625 5.375 C-1.27503906 4.37210938 -0.98757813 3.36921875 -0.69140625 2.3359375 C-0.46324219 1.56507813 -0.23507812 0.79421875 0 0 Z " fill="#4A433E" transform="translate(596,689)"/>
<path d="M0 0 C3.12270126 2.51830747 3.94523098 3.7261549 4.75 7.75 C4.8325 8.8225 4.915 9.895 5 11 C0 4.63636364 0 4.63636364 0 0 Z " fill="#B68F5F" transform="translate(276,609)"/>
<path d="M0 0 C0.33 0 0.66 0 1 0 C2.22159091 6.35227273 2.22159091 6.35227273 1.1875 9.375 C0 11 0 11 -2 12 C-1 3.42857143 -1 3.42857143 0 0 Z " fill="#3F3D3B" transform="translate(357,350)"/>
<path d="M0 0 C4.83256305 0.41421969 6.82679218 2.46413986 10 6 C6.62972148 6 5.93297304 5.50175992 3.3125 3.5625 C2.68988281 3.11003906 2.06726563 2.65757812 1.42578125 2.19140625 C0.95527344 1.79824219 0.48476563 1.40507812 0 1 C0 0.67 0 0.34 0 0 Z " fill="#B49062" transform="translate(682,249)"/>
<path d="M0 0 C3.5786304 1.65167557 6.74820188 3.78286492 10 6 C9.67 6.66 9.34 7.32 9 8 C4.41173718 6.06273348 2.19471406 4.51135667 0 0 Z " fill="#B58D5C" transform="translate(419,705)"/>
<path d="M0 0 C4.29 0.66 8.58 1.32 13 2 C13 2.33 13 2.66 13 3 C11.01432292 2.96744792 9.02864583 2.93489583 7.04296875 2.90234375 C4.79694539 2.91736783 4.79694539 2.91736783 2 4 C2 3.34 2 2.68 2 2 C1.34 2 0.68 2 0 2 C0 1.34 0 0.68 0 0 Z " fill="#4E4841" transform="translate(504,510)"/>
<path d="M0 0 C0.33 0.66 0.66 1.32 1 2 C0.01 2.495 0.01 2.495 -1 3 C-0.34 3.66 0.32 4.32 1 5 C-0.98 5.66 -2.96 6.32 -5 7 C-5.33 6.01 -5.66 5.02 -6 4 C-4.02 2.68 -2.04 1.36 0 0 Z " fill="#B99E7A" transform="translate(482,439)"/>
<path d="M0 0 C0.66 0.33 1.32 0.66 2 1 C0.35 2.98 -1.3 4.96 -3 7 C-4.32 6.67 -5.64 6.34 -7 6 C-4.69 4.02 -2.38 2.04 0 0 Z " fill="#393735" transform="translate(407,280)"/>
<path d="M0 0 C3.81684226 1.55500981 6.19195732 4.03595495 9 7 C4.75272765 6.52808085 2.76506398 4.07229331 0 1 C0 0.67 0 0.34 0 0 Z " fill="#B58F61" transform="translate(681,261)"/>
<path d="M0 0 C2.94956528 1.36944102 5.52468811 2.87830409 8 5 C8 5.66 8 6.32 8 7 C6.25 6.875 6.25 6.875 4 6 C1.75 2.9375 1.75 2.9375 0 0 Z " fill="#B58E60" transform="translate(345,729)"/>
<path d="M0 0 C3.68802044 1.22934015 4.72356973 2.93859378 7 6 C6.67 6.66 6.34 7.32 6 8 C1.2 4.55384615 1.2 4.55384615 0.1875 1.75 C0.125625 1.1725 0.06375 0.595 0 0 Z " fill="#B59062" transform="translate(305,688)"/>
<path d="M0 0 C2.76223278 2.76223278 2.57856291 5.20706617 3 9 C1.35 8.67 -0.3 8.34 -2 8 C-1.34 7.67 -0.68 7.34 0 7 C0 4.69 0 2.38 0 0 Z " fill="#B68F61" transform="translate(364,621)"/>
<path d="M0 0 C2.39763185 2.39763185 2.34280586 3.33273498 2.625 6.625 C2.69976562 7.44226563 2.77453125 8.25953125 2.8515625 9.1015625 C2.90054688 9.72804688 2.94953125 10.35453125 3 11 C1.03553095 9.3655205 0.07682209 8.53570606 -0.29296875 5.95703125 C-0.1953125 3.97135417 -0.09765625 1.98567708 0 0 Z " fill="#AF8656" transform="translate(253,578)"/>
<path d="M0 0 C0.66 0.33 1.32 0.66 2 1 C0.8125 3.4375 0.8125 3.4375 -1 6 C-3.6875 6.8125 -3.6875 6.8125 -6 7 C-6.33 6.34 -6.66 5.68 -7 5 C-6.21625 4.54625 -5.4325 4.0925 -4.625 3.625 C-1.96301969 2.11571258 -1.96301969 2.11571258 0 0 Z " fill="#AA8E6A" transform="translate(402,455)"/>
<path d="M0 0 C2.9719385 1.12451727 5.33440687 2.22293791 8 4 C8 4.66 8 5.32 8 6 C4.65750371 5.40312566 2.53563658 4.26396123 0 2 C0 1.34 0 0.68 0 0 Z " fill="#BBA07B" transform="translate(583,444)"/>
<path d="M0 0 C0.33 0 0.66 0 1 0 C1 3.63 1 7.26 1 11 C-0.32 11 -1.64 11 -3 11 C-3.33 10.34 -3.66 9.68 -4 9 C-2.68 9 -1.36 9 0 9 C0 6.03 0 3.06 0 0 Z " fill="#3B3834" transform="translate(642,373)"/>
<path d="M0 0 C2.78211944 0.37596209 4.5879284 0.67318459 6.8125 2.4375 C8 4 8 4 8 6 C4.63408134 4.55746343 2.48952921 2.66735273 0 0 Z " fill="#393531" transform="translate(618,367)"/>
<path d="M0 0 C-1 1.5 -1 1.5 -3 3 C-5.71846235 3.27345479 -8.25677199 3.13491285 -11 3 C-7.11595442 0.41063628 -4.5725325 -0.12358196 0 0 Z " fill="#B28956" transform="translate(532,740)"/>
<path d="M0 0 C-2.3129482 2.3129482 -3.47904875 2.49580975 -6.625 3.125 C-7.44226563 3.29257812 -8.25953125 3.46015625 -9.1015625 3.6328125 C-10.04128906 3.81457031 -10.04128906 3.81457031 -11 4 C-10.34 3.67 -9.68 3.34 -9 3 C-9 2.34 -9 1.68 -9 1 C-5.8035914 -0.06546953 -3.34252724 -0.07427838 0 0 Z " fill="#464240" transform="translate(611,737)"/>
<path d="M0 0 C2.43840236 2.43840236 3.62292893 4.85240898 5 8 C4.67 8.66 4.34 9.32 4 10 C1.2027092 7.93243723 0.97307727 6.85559629 0.3125 3.3125 C0.209375 2.219375 0.10625 1.12625 0 0 Z " fill="#B38F61" transform="translate(271,631)"/>
<path d="M0 0 C2.43055758 2.11693724 3.84507109 3.53521326 4.875 6.625 C4.936875 7.800625 4.936875 7.800625 5 9 C4.34 9.66 3.68 10.32 3 11 C2.49384702 9.73160474 1.99530901 8.46016898 1.5 7.1875 C1.2215625 6.47980469 0.943125 5.77210938 0.65625 5.04296875 C0 3 0 3 0 0 Z " fill="#BC9D79" transform="translate(259,604)"/>
<path d="M0 0 C0.33 0 0.66 0 1 0 C0.67 3.63 0.34 7.26 0 11 C-0.66 10.67 -1.32 10.34 -2 10 C-2 8.02 -2 6.04 -2 4 C-1.34 4 -0.68 4 0 4 C0 2.68 0 1.36 0 0 Z " fill="#B89C78" transform="translate(797,507)"/>
<path d="M0 0 C0.33 0 0.66 0 1 0 C2.42258812 3.82320557 3.24042276 6.91281305 3 11 C2.01 10.34 1.02 9.68 0 9 C-0.29296875 6.8359375 -0.29296875 6.8359375 -0.1875 4.375 C-0.16042969 3.55773437 -0.13335938 2.74046875 -0.10546875 1.8984375 C-0.05326172 0.95871094 -0.05326172 0.95871094 0 0 Z " fill="#BC9D78" transform="translate(790,458)"/>
<path d="M0 0 C0.66 0.33 1.32 0.66 2 1 C-0.25 3.5625 -0.25 3.5625 -3 6 C-4.32 5.67 -5.64 5.34 -7 5 C-4.69 3.35 -2.38 1.7 0 0 Z " fill="#B18C5D" transform="translate(457,438)"/>
<path d="M0 0 C1.32 0.33 2.64 0.66 4 1 C1.03 3.475 1.03 3.475 -2 6 C-2.66 5.67 -3.32 5.34 -4 5 C-2.68 3.35 -1.36 1.7 0 0 Z " fill="#B08B5B" transform="translate(450,417)"/>
<path d="M0 0 C3.4375 1.25 3.4375 1.25 7 3 C7.72265625 5.109375 7.72265625 5.109375 8 7 C6.66144944 6.21718695 5.32926356 5.42348123 4 4.625 C3.2575 4.18414062 2.515 3.74328125 1.75 3.2890625 C1.1725 2.86367188 0.595 2.43828125 0 2 C0 1.34 0 0.68 0 0 Z " fill="#B28E61" transform="translate(546,373)"/>
<path d="M0 0 C4.95 0.99 4.95 0.99 10 2 C5.82091936 4.08954032 5.19589427 4.16552619 1 3 C0.67 2.01 0.34 1.02 0 0 Z " fill="#BB9C74" transform="translate(457,777)"/>
<path d="M0 0 C3.82097239 0.53069061 6.06171403 1.49701566 9 4 C6.36 3.67 3.72 3.34 1 3 C0.67 2.01 0.34 1.02 0 0 Z " fill="#B58E61" transform="translate(414,771)"/>
<path d="M0 0 C2.5 2.3125 2.5 2.3125 5 5 C5 5.99 5 6.98 5 8 C2.5 6.25 2.5 6.25 0 4 C0 2.68 0 1.36 0 0 Z " fill="#B48D5E" transform="translate(298,678)"/>
<path d="M0 0 C2.64 0 5.28 0 8 0 C8 0.66 8 1.32 8 2 C8.66 2.33 9.32 2.66 10 3 C2.25 2.25 2.25 2.25 0 0 Z " fill="#B28A58" transform="translate(509,647)"/>
<path d="M0 0 C3.83736322 0.95934081 4.59660228 1.23609263 7 4 C6.67 4.99 6.34 5.98 6 7 C4.02 4.69 2.04 2.38 0 0 Z " fill="#B79260" transform="translate(375,578)"/>
<path d="M0 0 C1.98 0.99 1.98 0.99 4 2 C4 2.66 4 3.32 4 4 C4.66 4 5.32 4 6 4 C6 4.66 6 5.32 6 6 C6.66 6 7.32 6 8 6 C7.67 6.66 7.34 7.32 7 8 C3.70851757 6.86500606 3.0040131 6.00716624 1.25 2.875 C0.8375 1.92625 0.425 0.9775 0 0 Z " fill="#42403E" transform="translate(649,556)"/>
<path d="M0 0 C0.99 0.495 0.99 0.495 2 1 C2.59355614 3.64860427 2.74209269 6.29197322 3 9 C2.67 8.34 2.34 7.68 2 7 C1.34 7 0.68 7 0 7 C0 4.69 0 2.38 0 0 Z " fill="#B38D5D" transform="translate(780,403)"/>
<path d="M0 0 C1.32 0.33 2.64 0.66 4 1 C1.03 3.475 1.03 3.475 -2 6 C-2.66 5.67 -3.32 5.34 -4 5 C-2.68 3.35 -1.36 1.7 0 0 Z " fill="#B28C5E" transform="translate(463,407)"/>
<path d="M0 0 C1.32 0.33 2.64 0.66 4 1 C1.03 3.475 1.03 3.475 -2 6 C-2.66 5.67 -3.32 5.34 -4 5 C-2.68 3.35 -1.36 1.7 0 0 Z " fill="#B38D5E" transform="translate(472,400)"/>
<path d="M0 0 C2.875 0.25 2.875 0.25 6 1 C7.375 3.0625 7.375 3.0625 8 5 C4.62496331 3.8141763 2.35277269 2.72426311 0 0 Z " fill="#BB9B73" transform="translate(373,751)"/>
<path d="M0 0 C0 0.66 0 1.32 0 2 C-0.66 2 -1.32 2 -2 2 C-2 2.66 -2 3.32 -2 4 C-3.65 4 -5.3 4 -7 4 C-3.375 0 -3.375 0 0 0 Z " fill="#3A332D" transform="translate(551,746)"/>
<path d="M0 0 C0.66 0.33 1.32 0.66 2 1 C0.25 3.0625 0.25 3.0625 -2 5 C-4.25 4.75 -4.25 4.75 -6 4 C-4.02 2.68 -2.04 1.36 0 0 Z " fill="#48413C" transform="translate(561,739)"/>
<path d="M0 0 C2.875 0.25 2.875 0.25 6 1 C7.375 3.0625 7.375 3.0625 8 5 C4.62496331 3.8141763 2.35277269 2.72426311 0 0 Z " fill="#403C39" transform="translate(549,587)"/>
<path d="M0 0 C3.37503669 1.1858237 5.64722731 2.27573689 8 5 C5.125 4.75 5.125 4.75 2 4 C0.625 1.9375 0.625 1.9375 0 0 Z " fill="#3F3D3A" transform="translate(631,543)"/>
<path d="M0 0 C2.97 0.495 2.97 0.495 6 1 C6.33 1.99 6.66 2.98 7 4 C5.02 4 3.04 4 1 4 C0.67 2.68 0.34 1.36 0 0 Z " fill="#4A4441" transform="translate(464,544)"/>
<path d="M0 0 C2.56687367 3.8503105 1.83288724 5.58569763 1 10 C0.34 9.67 -0.32 9.34 -1 9 C-0.67 6.03 -0.34 3.06 0 0 Z " fill="#A5937B" transform="translate(787,541)"/>
<path d="M0 0 C2.875 0.25 2.875 0.25 6 1 C7.375 3.0625 7.375 3.0625 8 5 C4.62496331 3.8141763 2.35277269 2.72426311 0 0 Z " fill="#403B38" transform="translate(454,538)"/>
<path d="M0 0 C0.33 0.99 0.66 1.98 1 3 C1.66 3 2.32 3 3 3 C2.67 5.97 2.34 8.94 2 12 C1.67 12 1.34 12 1 12 C0.67 8.04 0.34 4.08 0 0 Z " fill="#524E4B" transform="translate(353,404)"/>
<path d="M0 0 C2.32472205 2.85306797 3.7508258 5.54074837 5 9 C2 8 2 8 0 5 C-0.125 2.3125 -0.125 2.3125 0 0 Z " fill="#B68F61" transform="translate(751,336)"/>
<path d="M0 0 C3.77545388 1.09068668 6.47043472 1.9083091 9 5 C7.68428397 4.7452486 6.37239624 4.47065859 5.0625 4.1875 C4.33160156 4.03667969 3.60070312 3.88585937 2.84765625 3.73046875 C2.23792969 3.48941406 1.62820313 3.24835938 1 3 C0.67 2.01 0.34 1.02 0 0 Z " fill="#B18B5B" transform="translate(643,238)"/>
<path d="M0 0 C1.43836751 0.11458693 2.87570966 0.24209116 4.3125 0.375 C5.51326172 0.47941406 5.51326172 0.47941406 6.73828125 0.5859375 C9 1 9 1 12 3 C9.03 3 6.06 3 3 3 C3 2.34 3 1.68 3 1 C2.01 0.67 1.02 0.34 0 0 Z " fill="#BBA07E" transform="translate(612,220)"/>
<path d="M0 0 C0.66 0 1.32 0 2 0 C2.125 3.375 2.125 3.375 2 7 C1.34 7.66 0.68 8.32 0 9 C0 6.03 0 3.06 0 0 Z " fill="#A48967" transform="translate(527,482)"/>
<path d="M0 0 C0 3 0 3 0 3 Z " fill="#514842" transform="translate(569,604)"/>
<path d="M0 0 C0.99 0.33 1.98 0.66 3 1 C2.01 1 1.02 1 0 1 C0 0.67 0 0.34 0 0 Z " fill="#544C46" transform="translate(520,574)"/>
<path d="M0 0 C4 1 4 1 4 1 Z " fill="#8B765A" transform="translate(508,490)"/>
<path d="M0 0 C0.33 0.66 0.66 1.32 1 2 C0.01 1.67 -0.98 1.34 -2 1 C-1.34 0.67 -0.68 0.34 0 0 Z " fill="#B89973" transform="translate(543,466)"/>
<path d="M0 0 C0.66 0 1.32 0 2 0 C2 0.66 2 1.32 2 2 C1.34 2 0.68 2 0 2 C0 1.34 0 0.68 0 0 Z " fill="#B89772" transform="translate(527,458)"/>
<path d="M0 0 C0 3 0 3 0 3 Z " fill="#B99A73" transform="translate(528,449)"/>
<path d="M0 0 C0.66 0 1.32 0 2 0 C1.67 0.99 1.34 1.98 1 3 C0.67 2.01 0.34 1.02 0 0 Z " fill="#4C4743" transform="translate(353,421)"/>
<path d="M0 0 C3 1 3 1 3 1 Z " fill="#B29471" transform="translate(476,791)"/>
<path d="M0 0 C3 1 3 1 3 1 Z " fill="#B39470" transform="translate(468,790)"/>
<path d="M0 0 C3 1 3 1 3 1 Z " fill="#B29670" transform="translate(464,789)"/>
<path d="" fill="#514A42" transform="translate(0,0)"/>
<path d="M0 0 C0.99 0.495 0.99 0.495 2 1 C1.01 1.495 1.01 1.495 0 2 C0 1.34 0 0.68 0 0 Z " fill="#4D4640" transform="translate(585,624)"/>
<path d="" fill="#BE9F77" transform="translate(0,0)"/>
<path d="" fill="#454341" transform="translate(0,0)"/>
<path d="M0 0 C3 1 3 1 3 1 Z " fill="#B59773" transform="translate(511,466)"/>
<path d="" fill="#B59771" transform="translate(0,0)"/>
<path d="M0 0 C2 1 2 1 2 1 Z " fill="#BB9C73" transform="translate(438,768)"/>
<path d="M0 0 C2 1 2 1 2 1 Z " fill="#BD9D78" transform="translate(421,760)"/>
<path d="M0 0 C2 1 2 1 2 1 Z " fill="#594F48" transform="translate(568,750)"/>
<path d="M0 0 C2 1 2 1 2 1 Z " fill="#554C43" transform="translate(593,648)"/>
<path d="" fill="#544C44" transform="translate(0,0)"/>
<path d="" fill="#4E4841" transform="translate(0,0)"/>
<path d="" fill="#B69874" transform="translate(0,0)"/>
<path d="M0 0 C2 1 2 1 2 1 Z " fill="#49453F" transform="translate(612,532)"/>
<path d="M0 0 C2 1 2 1 2 1 Z " fill="#585047" transform="translate(569,520)"/>
<path d="" fill="#504943" transform="translate(0,0)"/>
<path d="" fill="#AF9575" transform="translate(0,0)"/>
<path d="M0 0 C2 1 2 1 2 1 Z " fill="#B79974" transform="translate(534,467)"/>
<path d="M0 0 C2 1 2 1 2 1 Z " fill="#B99B75" transform="translate(527,447)"/>
<path d="M0 0 C2 1 2 1 2 1 Z " fill="#BE9D73" transform="translate(534,442)"/>
<path d="M0 0 C2 1 2 1 2 1 Z " fill="#BB9870" transform="translate(531,442)"/>
<path d="M0 0 C2 1 2 1 2 1 Z " fill="#BD9C75" transform="translate(521,442)"/>
<path d="" fill="#90795B" transform="translate(0,0)"/>
<path d="" fill="#BA9C76" transform="translate(0,0)"/>
<path d="M0 0 C2 1 2 1 2 1 Z " fill="#BC9C73" transform="translate(537,427)"/>
<path d="M0 0 C2 1 2 1 2 1 Z " fill="#554A41" transform="translate(601,357)"/>
<path d="" fill="#45403F" transform="translate(0,0)"/>
<path d="M0 0 C2 1 2 1 2 1 Z " fill="#46423E" transform="translate(498,300)"/>
<path d="M0 0 C2 1 2 1 2 1 Z " fill="#43403B" transform="translate(492,300)"/>
<path d="M0 0 C2 1 2 1 2 1 Z " fill="#464241" transform="translate(408,272)"/>
<path d="M0 0 C2 1 2 1 2 1 Z " fill="#464542" transform="translate(448,256)"/>
<path d="M0 0 C2 1 2 1 2 1 Z " fill="#464440" transform="translate(474,248)"/>
<path d="" fill="#B09470" transform="translate(0,0)"/>
<path d="M0 0 C2 1 2 1 2 1 Z " fill="#AB916E" transform="translate(615,230)"/>
<path d="M0 0 C2 1 2 1 2 1 Z " fill="#A38B6C" transform="translate(578,221)"/>
<path d="M0 0 C2 1 2 1 2 1 Z " fill="#A0896B" transform="translate(571,220)"/>
<path d="" fill="#504F4D" transform="translate(0,0)"/>
<path d="" fill="#B19572" transform="translate(0,0)"/>
<path d="" fill="#9E886C" transform="translate(0,0)"/>
<path d="" fill="#AD9270" transform="translate(0,0)"/>
<path d="" fill="#AB8F6A" transform="translate(0,0)"/>
<path d="" fill="#B39873" transform="translate(0,0)"/>
<path d="" fill="#B79A76" transform="translate(0,0)"/>
<path d="" fill="#B89A74" transform="translate(0,0)"/>
<path d="" fill="#B1936E" transform="translate(0,0)"/>
<path d="" fill="#B59A76" transform="translate(0,0)"/>
<path d="" fill="#B69975" transform="translate(0,0)"/>
<path d="" fill="#B49775" transform="translate(0,0)"/>
<path d="" fill="#BC9A73" transform="translate(0,0)"/>
<path d="" fill="#BC9C75" transform="translate(0,0)"/>
<path d="" fill="#B59771" transform="translate(0,0)"/>
<path d="" fill="#8E7B62" transform="translate(0,0)"/>
<path d="" fill="#B39872" transform="translate(0,0)"/>
<path d="" fill="#85725A" transform="translate(0,0)"/>
<path d="" fill="#C19F78" transform="translate(0,0)"/>
<path d="" fill="#484340" transform="translate(0,0)"/>
<path d="" fill="#A38868" transform="translate(0,0)"/>
<path d="" fill="#B59772" transform="translate(0,0)"/>
<path d="" fill="#484442" transform="translate(0,0)"/>
<path d="" fill="#A18765" transform="translate(0,0)"/>
<path d="" fill="#B69773" transform="translate(0,0)"/>
<path d="" fill="#B39771" transform="translate(0,0)"/>
<path d="" fill="#BFA27A" transform="translate(0,0)"/>
<path d="" fill="#6E5E4D" transform="translate(0,0)"/>
<path d="" fill="#45433F" transform="translate(0,0)"/>
<path d="" fill="#434140" transform="translate(0,0)"/>
<path d="" fill="#B39772" transform="translate(0,0)"/>
<path d="" fill="#B69673" transform="translate(0,0)"/>
<path d="" fill="#6F5F4C" transform="translate(0,0)"/>
<path d="" fill="#45443E" transform="translate(0,0)"/>
<path d="" fill="#BF9F78" transform="translate(0,0)"/>
<path d="" fill="#645549" transform="translate(0,0)"/>
<path d="" fill="#977D5E" transform="translate(0,0)"/>
<path d="" fill="#635647" transform="translate(0,0)"/>
<path d="" fill="#6D5E4D" transform="translate(0,0)"/>
<path d="" fill="#706150" transform="translate(0,0)"/>
<path d="" fill="#937657" transform="translate(0,0)"/>
<path d="" fill="#BDA078" transform="translate(0,0)"/>
<path d="" fill="#C0A07A" transform="translate(0,0)"/>
<path d="" fill="#5C5347" transform="translate(0,0)"/>
<path d="" fill="#BFA077" transform="translate(0,0)"/>
<path d="" fill="#B69977" transform="translate(0,0)"/>
<path d="" fill="#B79A73" transform="translate(0,0)"/>
<path d="" fill="#BE9C76" transform="translate(0,0)"/>
<path d="" fill="#B49975" transform="translate(0,0)"/>
<path d="" fill="#BF9F79" transform="translate(0,0)"/>
<path d="" fill="#A08766" transform="translate(0,0)"/>
<path d="" fill="#403F3E" transform="translate(0,0)"/>
<path d="" fill="#5A5047" transform="translate(0,0)"/>
<path d="" fill="#554B43" transform="translate(0,0)"/>
<path d="" fill="#BFA177" transform="translate(0,0)"/>
<path d="" fill="#B69976" transform="translate(0,0)"/>
<path d="" fill="#B49972" transform="translate(0,0)"/>
<path d="" fill="#5C5149" transform="translate(0,0)"/>
<path d="" fill="#A9906A" transform="translate(0,0)"/>
<path d="" fill="#504A43" transform="translate(0,0)"/>
<path d="" fill="#BEA279" transform="translate(0,0)"/>
<path d="" fill="#5A5047" transform="translate(0,0)"/>
<path d="" fill="#524B44" transform="translate(0,0)"/>
<path d="" fill="#C2A279" transform="translate(0,0)"/>
<path d="" fill="#4C453E" transform="translate(0,0)"/>
<path d="" fill="#B1936B" transform="translate(0,0)"/>
<path d="" fill="#BD9D77" transform="translate(0,0)"/>
<path d="" fill="#4E4641" transform="translate(0,0)"/>
<path d="" fill="#B4956E" transform="translate(0,0)"/>
<path d="" fill="#B69972" transform="translate(0,0)"/>
<path d="" fill="#514B44" transform="translate(0,0)"/>
<path d="" fill="#B59874" transform="translate(0,0)"/>
<path d="" fill="#BFA179" transform="translate(0,0)"/>
<path d="" fill="#B4966F" transform="translate(0,0)"/>
<path d="" fill="#BFA077" transform="translate(0,0)"/>
<path d="" fill="#BB9D73" transform="translate(0,0)"/>
<path d="" fill="#AF9269" transform="translate(0,0)"/>
<path d="" fill="#BFA075" transform="translate(0,0)"/>
<path d="" fill="#BD9E77" transform="translate(0,0)"/>
<path d="" fill="#4F4A44" transform="translate(0,0)"/>
<path d="" fill="#B69B79" transform="translate(0,0)"/>
<path d="" fill="#4F4742" transform="translate(0,0)"/>
<path d="" fill="#B79A74" transform="translate(0,0)"/>
<path d="" fill="#BE9E73" transform="translate(0,0)"/>
<path d="" fill="#B3996F" transform="translate(0,0)"/>
<path d="" fill="#524A44" transform="translate(0,0)"/>
<path d="" fill="#524B43" transform="translate(0,0)"/>
<path d="" fill="#504841" transform="translate(0,0)"/>
<path d="" fill="#484640" transform="translate(0,0)"/>
<path d="" fill="#BEA077" transform="translate(0,0)"/>
<path d="" fill="#BD9F78" transform="translate(0,0)"/>
<path d="" fill="#524B43" transform="translate(0,0)"/>
<path d="" fill="#B3946F" transform="translate(0,0)"/>
<path d="" fill="#B59771" transform="translate(0,0)"/>
<path d="" fill="#BA996E" transform="translate(0,0)"/>
<path d="" fill="#574F47" transform="translate(0,0)"/>
<path d="" fill="#B89B73" transform="translate(0,0)"/>
<path d="" fill="#534C43" transform="translate(0,0)"/>
<path d="" fill="#585047" transform="translate(0,0)"/>
<path d="" fill="#514943" transform="translate(0,0)"/>
<path d="" fill="#574E45" transform="translate(0,0)"/>
<path d="" fill="#5A5148" transform="translate(0,0)"/>
<path d="" fill="#574F47" transform="translate(0,0)"/>
<path d="" fill="#5A5248" transform="translate(0,0)"/>
<path d="" fill="#575048" transform="translate(0,0)"/>
<path d="" fill="#B89A77" transform="translate(0,0)"/>
<path d="" fill="#9D8D72" transform="translate(0,0)"/>
<path d="" fill="#534C46" transform="translate(0,0)"/>
<path d="" fill="#554E47" transform="translate(0,0)"/>
<path d="" fill="#534C48" transform="translate(0,0)"/>
<path d="" fill="#A48E72" transform="translate(0,0)"/>
<path d="" fill="#524A43" transform="translate(0,0)"/>
<path d="" fill="#5B5146" transform="translate(0,0)"/>
<path d="" fill="#5B4F47" transform="translate(0,0)"/>
<path d="" fill="#514C45" transform="translate(0,0)"/>
<path d="" fill="#585149" transform="translate(0,0)"/>
<path d="" fill="#564C40" transform="translate(0,0)"/>
<path d="" fill="#AF9878" transform="translate(0,0)"/>
<path d="" fill="#655A4C" transform="translate(0,0)"/>
<path d="" fill="#585149" transform="translate(0,0)"/>
<path d="" fill="#574F4A" transform="translate(0,0)"/>
<path d="" fill="#575048" transform="translate(0,0)"/>
<path d="" fill="#585047" transform="translate(0,0)"/>
<path d="" fill="#574E49" transform="translate(0,0)"/>
<path d="" fill="#B09271" transform="translate(0,0)"/>
<path d="" fill="#574F46" transform="translate(0,0)"/>
<path d="" fill="#584E44" transform="translate(0,0)"/>
<path d="" fill="#514842" transform="translate(0,0)"/>
<path d="" fill="#826D55" transform="translate(0,0)"/>
<path d="" fill="#534C45" transform="translate(0,0)"/>
<path d="" fill="#534C46" transform="translate(0,0)"/>
<path d="" fill="#90785E" transform="translate(0,0)"/>
<path d="" fill="#927C60" transform="translate(0,0)"/>
<path d="" fill="#947C60" transform="translate(0,0)"/>
<path d="" fill="#534B45" transform="translate(0,0)"/>
<path d="" fill="#514B47" transform="translate(0,0)"/>
<path d="" fill="#584F48" transform="translate(0,0)"/>
<path d="" fill="#AB8F69" transform="translate(0,0)"/>
<path d="" fill="#524A44" transform="translate(0,0)"/>
<path d="" fill="#B69C77" transform="translate(0,0)"/>
<path d="" fill="#A78E6F" transform="translate(0,0)"/>
<path d="" fill="#B99977" transform="translate(0,0)"/>
<path d="" fill="#AF9370" transform="translate(0,0)"/>
<path d="" fill="#B59672" transform="translate(0,0)"/>
<path d="" fill="#B49570" transform="translate(0,0)"/>
<path d="" fill="#B49771" transform="translate(0,0)"/>
<path d="" fill="#A78F6E" transform="translate(0,0)"/>
<path d="" fill="#B29270" transform="translate(0,0)"/>
<path d="" fill="#BB9D78" transform="translate(0,0)"/>
<path d="" fill="#A18667" transform="translate(0,0)"/>
<path d="" fill="#514A44" transform="translate(0,0)"/>
<path d="" fill="#7C6853" transform="translate(0,0)"/>
<path d="" fill="#AE906B" transform="translate(0,0)"/>
<path d="" fill="#B69871" transform="translate(0,0)"/>
<path d="" fill="#AD926D" transform="translate(0,0)"/>
<path d="" fill="#B0946D" transform="translate(0,0)"/>
<path d="" fill="#B0946E" transform="translate(0,0)"/>
<path d="" fill="#B79973" transform="translate(0,0)"/>
<path d="" fill="#B1966E" transform="translate(0,0)"/>
<path d="" fill="#B39772" transform="translate(0,0)"/>
<path d="" fill="#504844" transform="translate(0,0)"/>
<path d="" fill="#BC9E76" transform="translate(0,0)"/>
<path d="" fill="#B89976" transform="translate(0,0)"/>
<path d="" fill="#BB9D79" transform="translate(0,0)"/>
<path d="" fill="#B99C75" transform="translate(0,0)"/>
<path d="" fill="#B29873" transform="translate(0,0)"/>
<path d="" fill="#B2916F" transform="translate(0,0)"/>
<path d="" fill="#B2946E" transform="translate(0,0)"/>
<path d="" fill="#B69871" transform="translate(0,0)"/>
<path d="" fill="#B79974" transform="translate(0,0)"/>
<path d="" fill="#988972" transform="translate(0,0)"/>
<path d="" fill="#B69870" transform="translate(0,0)"/>
<path d="" fill="#BA9B74" transform="translate(0,0)"/>
<path d="" fill="#8E795D" transform="translate(0,0)"/>
<path d="" fill="#BD9E7A" transform="translate(0,0)"/>
<path d="" fill="#BA9B71" transform="translate(0,0)"/>
<path d="" fill="#968570" transform="translate(0,0)"/>
<path d="" fill="#B49872" transform="translate(0,0)"/>
<path d="" fill="#7F6B57" transform="translate(0,0)"/>
<path d="" fill="#B89872" transform="translate(0,0)"/>
<path d="" fill="#B89871" transform="translate(0,0)"/>
<path d="" fill="#B49572" transform="translate(0,0)"/>
<path d="" fill="#B89C72" transform="translate(0,0)"/>
<path d="" fill="#94846E" transform="translate(0,0)"/>
<path d="" fill="#BC9D74" transform="translate(0,0)"/>
<path d="" fill="#BD9C74" transform="translate(0,0)"/>
<path d="" fill="#4E4946" transform="translate(0,0)"/>
<path d="" fill="#B79871" transform="translate(0,0)"/>
<path d="" fill="#B79A71" transform="translate(0,0)"/>
<path d="" fill="#B2946E" transform="translate(0,0)"/>
<path d="" fill="#B79B73" transform="translate(0,0)"/>
<path d="" fill="#BA9A73" transform="translate(0,0)"/>
<path d="" fill="#B89970" transform="translate(0,0)"/>
<path d="" fill="#937B5F" transform="translate(0,0)"/>
<path d="" fill="#4F4A47" transform="translate(0,0)"/>
<path d="" fill="#B59973" transform="translate(0,0)"/>
<path d="" fill="#B1936D" transform="translate(0,0)"/>
<path d="" fill="#83705A" transform="translate(0,0)"/>
<path d="" fill="#937C5E" transform="translate(0,0)"/>
<path d="" fill="#4D4946" transform="translate(0,0)"/>
<path d="" fill="#B79B73" transform="translate(0,0)"/>
<path d="" fill="#978061" transform="translate(0,0)"/>
<path d="" fill="#BB9F74" transform="translate(0,0)"/>
<path d="" fill="#BD9E76" transform="translate(0,0)"/>
<path d="" fill="#BB9D76" transform="translate(0,0)"/>
<path d="" fill="#BB9B77" transform="translate(0,0)"/>
<path d="" fill="#BB9E76" transform="translate(0,0)"/>
<path d="" fill="#BE9D73" transform="translate(0,0)"/>
<path d="" fill="#4C4945" transform="translate(0,0)"/>
<path d="" fill="#BC9E78" transform="translate(0,0)"/>
<path d="" fill="#A98C6A" transform="translate(0,0)"/>
<path d="" fill="#B99A71" transform="translate(0,0)"/>
<path d="" fill="#B09370" transform="translate(0,0)"/>
<path d="" fill="#AE936F" transform="translate(0,0)"/>
<path d="" fill="#AD916B" transform="translate(0,0)"/>
<path d="" fill="#746755" transform="translate(0,0)"/>
<path d="" fill="#AE916D" transform="translate(0,0)"/>
<path d="" fill="#695E50" transform="translate(0,0)"/>
<path d="" fill="#675A4D" transform="translate(0,0)"/>
<path d="" fill="#BB9C74" transform="translate(0,0)"/>
<path d="" fill="#B69873" transform="translate(0,0)"/>
<path d="" fill="#605448" transform="translate(0,0)"/>
<path d="" fill="#594F46" transform="translate(0,0)"/>
<path d="" fill="#AC906B" transform="translate(0,0)"/>
<path d="" fill="#AD936F" transform="translate(0,0)"/>
<path d="" fill="#B09470" transform="translate(0,0)"/>
<path d="" fill="#BA9C76" transform="translate(0,0)"/>
<path d="" fill="#5E5447" transform="translate(0,0)"/>
<path d="" fill="#48423E" transform="translate(0,0)"/>
<path d="" fill="#A78C6B" transform="translate(0,0)"/>
<path d="" fill="#494544" transform="translate(0,0)"/>
<path d="" fill="#5A4F44" transform="translate(0,0)"/>
<path d="" fill="#464341" transform="translate(0,0)"/>
<path d="" fill="#44423F" transform="translate(0,0)"/>
<path d="" fill="#47423E" transform="translate(0,0)"/>
<path d="" fill="#40403D" transform="translate(0,0)"/>
<path d="" fill="#B49670" transform="translate(0,0)"/>
<path d="" fill="#594D47" transform="translate(0,0)"/>
<path d="" fill="#5A5247" transform="translate(0,0)"/>
<path d="" fill="#544A41" transform="translate(0,0)"/>
<path d="" fill="#564C43" transform="translate(0,0)"/>
<path d="" fill="#443F3F" transform="translate(0,0)"/>
<path d="" fill="#574E47" transform="translate(0,0)"/>
<path d="" fill="#4F443F" transform="translate(0,0)"/>
<path d="" fill="#44433E" transform="translate(0,0)"/>
<path d="" fill="#B89873" transform="translate(0,0)"/>
<path d="" fill="#46423E" transform="translate(0,0)"/>
<path d="" fill="#B69972" transform="translate(0,0)"/>
<path d="" fill="#B99873" transform="translate(0,0)"/>
<path d="" fill="#514941" transform="translate(0,0)"/>
<path d="" fill="#514941" transform="translate(0,0)"/>
<path d="" fill="#50473E" transform="translate(0,0)"/>
<path d="" fill="#43413D" transform="translate(0,0)"/>
<path d="" fill="#4F4843" transform="translate(0,0)"/>
<path d="" fill="#B59771" transform="translate(0,0)"/>
<path d="" fill="#B4956F" transform="translate(0,0)"/>
<path d="" fill="#B89871" transform="translate(0,0)"/>
<path d="" fill="#4F4945" transform="translate(0,0)"/>
<path d="" fill="#3F3A37" transform="translate(0,0)"/>
<path d="" fill="#453F3A" transform="translate(0,0)"/>
<path d="" fill="#B5946F" transform="translate(0,0)"/>
<path d="" fill="#B59772" transform="translate(0,0)"/>
<path d="" fill="#5E544B" transform="translate(0,0)"/>
<path d="" fill="#5A4F42" transform="translate(0,0)"/>
<path d="" fill="#B59670" transform="translate(0,0)"/>
<path d="" fill="#594A42" transform="translate(0,0)"/>
<path d="" fill="#423F3C" transform="translate(0,0)"/>
<path d="" fill="#605648" transform="translate(0,0)"/>
<path d="" fill="#5C5246" transform="translate(0,0)"/>
<path d="" fill="#B3936D" transform="translate(0,0)"/>
<path d="" fill="#433F40" transform="translate(0,0)"/>
<path d="" fill="#574C42" transform="translate(0,0)"/>
<path d="" fill="#605649" transform="translate(0,0)"/>
<path d="" fill="#5B5146" transform="translate(0,0)"/>
<path d="" fill="#564E48" transform="translate(0,0)"/>
<path d="" fill="#564E47" transform="translate(0,0)"/>
<path d="" fill="#B29371" transform="translate(0,0)"/>
<path d="" fill="#46423F" transform="translate(0,0)"/>
<path d="" fill="#564F47" transform="translate(0,0)"/>
<path d="" fill="#44403D" transform="translate(0,0)"/>
<path d="" fill="#B09472" transform="translate(0,0)"/>
<path d="" fill="#524844" transform="translate(0,0)"/>
<path d="" fill="#B19773" transform="translate(0,0)"/>
<path d="" fill="#AE936E" transform="translate(0,0)"/>
<path d="" fill="#A98F6E" transform="translate(0,0)"/>
<path d="" fill="#B09170" transform="translate(0,0)"/>
<path d="" fill="#A78D6C" transform="translate(0,0)"/>
<path d="" fill="#A78D6F" transform="translate(0,0)"/>
<path d="" fill="#A98F6F" transform="translate(0,0)"/>
<path d="" fill="#A1896C" transform="translate(0,0)"/>
<path d="" fill="#998467" transform="translate(0,0)"/>
</svg>
